<mxfile host="app.diagrams.net" modified="2022-05-24T07:20:40.458Z" agent="5.0 (Windows NT 10.0; Win64; x64) AppleWebKit/537.36 (KHTML, like Gecko) Chrome/101.0.0.0 Safari/537.36" etag="jtFtPp_gZw9rEA-ArNdx" version="18.1.1" type="github">
  <diagram name="Page-1" id="03018318-947c-dd8e-b7a3-06fadd420f32">
    <mxGraphModel dx="2926" dy="1549" grid="1" gridSize="10" guides="1" tooltips="1" connect="1" arrows="1" fold="1" page="1" pageScale="1" pageWidth="1100" pageHeight="850" background="none" math="0" shadow="0">
      <root>
        <mxCell id="0" />
        <mxCell id="1" parent="0" />
        <mxCell id="677b7b8949515195-1" value="" style="whiteSpace=wrap;html=1;rounded=0;shadow=0;labelBackgroundColor=none;strokeColor=#000000;strokeWidth=1;fillColor=none;fontFamily=Verdana;fontSize=12;fontColor=#000000;align=center;comic=1;" parent="1" vertex="1">
          <mxGeometry x="30" y="20" width="1050" height="1960" as="geometry" />
        </mxCell>
        <mxCell id="677b7b8949515195-2" value="LOGO" style="whiteSpace=wrap;html=1;rounded=0;shadow=0;labelBackgroundColor=none;strokeWidth=1;fontFamily=Verdana;fontSize=28;align=center;comic=1;" parent="1" vertex="1">
          <mxGeometry x="470" y="55" width="190" height="50" as="geometry" />
        </mxCell>
        <mxCell id="677b7b8949515195-3" value="" style="strokeWidth=1;shadow=0;dashed=0;align=center;html=1;shape=mxgraph.mockup.forms.searchBox;strokeColor=#999999;mainText=;strokeColor2=#008cff;fontColor=#666666;fontSize=17;align=left;spacingLeft=3;rounded=0;labelBackgroundColor=none;comic=1;" parent="1" vertex="1">
          <mxGeometry x="1030" y="65" width="30" height="30" as="geometry" />
        </mxCell>
        <mxCell id="677b7b8949515195-8" value="" style="whiteSpace=wrap;html=1;rounded=0;shadow=0;labelBackgroundColor=none;strokeWidth=1;fillColor=none;fontFamily=Verdana;fontSize=12;align=center;comic=1;" parent="1" vertex="1">
          <mxGeometry x="30" y="160" width="180" height="1510" as="geometry" />
        </mxCell>
        <mxCell id="677b7b8949515195-9" value="" style="line;strokeWidth=1;html=1;rounded=0;shadow=0;labelBackgroundColor=none;fillColor=none;fontFamily=Verdana;fontSize=14;fontColor=#000000;align=center;comic=1;" parent="1" vertex="1">
          <mxGeometry x="20" y="140" width="1060" height="10" as="geometry" />
        </mxCell>
        <mxCell id="677b7b8949515195-16" value="" style="verticalLabelPosition=bottom;shadow=0;dashed=0;align=center;html=1;verticalAlign=top;strokeWidth=1;shape=mxgraph.mockup.graphics.simpleIcon;strokeColor=#999999;rounded=0;labelBackgroundColor=none;fontFamily=Verdana;fontSize=14;fontColor=#000000;comic=1;" parent="1" vertex="1">
          <mxGeometry x="230" y="171" width="830" height="319" as="geometry" />
        </mxCell>
        <mxCell id="677b7b8949515195-25" value="" style="whiteSpace=wrap;html=1;rounded=0;shadow=0;labelBackgroundColor=none;strokeWidth=1;fillColor=none;fontFamily=Verdana;fontSize=12;align=center;comic=1;" parent="1" vertex="1">
          <mxGeometry x="230" y="510" width="830" height="1160" as="geometry" />
        </mxCell>
        <mxCell id="677b7b8949515195-27" value="Section 1" style="text;html=1;points=[];align=left;verticalAlign=top;spacingTop=-4;fontSize=14;fontFamily=Verdana" parent="1" vertex="1">
          <mxGeometry x="35" y="205" width="170" height="20" as="geometry" />
        </mxCell>
        <mxCell id="677b7b8949515195-28" value="Section 2" style="text;html=1;points=[];align=left;verticalAlign=top;spacingTop=-4;fontSize=14;fontFamily=Verdana" parent="1" vertex="1">
          <mxGeometry x="35" y="258" width="170" height="20" as="geometry" />
        </mxCell>
        <mxCell id="677b7b8949515195-29" value="Section 3" style="text;html=1;points=[];align=left;verticalAlign=top;spacingTop=-4;fontSize=14;fontFamily=Verdana" parent="1" vertex="1">
          <mxGeometry x="35" y="315" width="170" height="20" as="geometry" />
        </mxCell>
        <mxCell id="677b7b8949515195-30" value="Section 4" style="text;html=1;points=[];align=left;verticalAlign=top;spacingTop=-4;fontSize=14;fontFamily=Verdana" parent="1" vertex="1">
          <mxGeometry x="40" y="365" width="170" height="20" as="geometry" />
        </mxCell>
        <mxCell id="677b7b8949515195-31" value="Section 7" style="text;html=1;points=[];align=left;verticalAlign=top;spacingTop=-4;fontSize=14;fontFamily=Verdana" parent="1" vertex="1">
          <mxGeometry x="40" y="545" width="170" height="20" as="geometry" />
        </mxCell>
        <mxCell id="677b7b8949515195-32" value="Section 8" style="text;html=1;points=[];align=left;verticalAlign=top;spacingTop=-4;fontSize=14;fontFamily=Verdana" parent="1" vertex="1">
          <mxGeometry x="40" y="605" width="170" height="20" as="geometry" />
        </mxCell>
        <mxCell id="677b7b8949515195-33" value="Section 9" style="text;html=1;points=[];align=left;verticalAlign=top;spacingTop=-4;fontSize=14;fontFamily=Verdana" parent="1" vertex="1">
          <mxGeometry x="40" y="655" width="170" height="20" as="geometry" />
        </mxCell>
        <mxCell id="677b7b8949515195-34" value="Section 10" style="text;html=1;points=[];align=left;verticalAlign=top;spacingTop=-4;fontSize=14;fontFamily=Verdana" parent="1" vertex="1">
          <mxGeometry x="40" y="706" width="170" height="20" as="geometry" />
        </mxCell>
        <mxCell id="677b7b8949515195-35" value="Section 11" style="text;html=1;points=[];align=left;verticalAlign=top;spacingTop=-4;fontSize=14;fontFamily=Verdana" parent="1" vertex="1">
          <mxGeometry x="40" y="752" width="170" height="20" as="geometry" />
        </mxCell>
        <mxCell id="677b7b8949515195-36" value="Section 12" style="text;html=1;points=[];align=left;verticalAlign=top;spacingTop=-4;fontSize=14;fontFamily=Verdana" parent="1" vertex="1">
          <mxGeometry x="40" y="799" width="170" height="20" as="geometry" />
        </mxCell>
        <mxCell id="677b7b8949515195-37" value="Section 13" style="text;html=1;points=[];align=left;verticalAlign=top;spacingTop=-4;fontSize=14;fontFamily=Verdana" parent="1" vertex="1">
          <mxGeometry x="40" y="845" width="170" height="20" as="geometry" />
        </mxCell>
        <mxCell id="677b7b8949515195-38" value="Section 14" style="text;html=1;points=[];align=left;verticalAlign=top;spacingTop=-4;fontSize=14;fontFamily=Verdana" parent="1" vertex="1">
          <mxGeometry x="40" y="895" width="170" height="20" as="geometry" />
        </mxCell>
        <mxCell id="677b7b8949515195-39" value="Section 5" style="text;html=1;points=[];align=left;verticalAlign=top;spacingTop=-4;fontSize=14;fontFamily=Verdana" parent="1" vertex="1">
          <mxGeometry x="40" y="425" width="170" height="20" as="geometry" />
        </mxCell>
        <mxCell id="677b7b8949515195-40" value="Section 6" style="text;html=1;points=[];align=left;verticalAlign=top;spacingTop=-4;fontSize=14;fontFamily=Verdana" parent="1" vertex="1">
          <mxGeometry x="40" y="485" width="170" height="20" as="geometry" />
        </mxCell>
        <mxCell id="677b7b8949515195-41" value="Section 15" style="text;html=1;points=[];align=left;verticalAlign=top;spacingTop=-4;fontSize=14;fontFamily=Verdana" parent="1" vertex="1">
          <mxGeometry x="40" y="945" width="170" height="20" as="geometry" />
        </mxCell>
        <mxCell id="ezcsZX249BQA05ixr2hQ-253" value="" style="edgeStyle=orthogonalEdgeStyle;rounded=0;orthogonalLoop=1;jettySize=auto;html=1;fontFamily=Georgia;fontSize=36;" edge="1" parent="1" source="ezcsZX249BQA05ixr2hQ-4" target="ezcsZX249BQA05ixr2hQ-251">
          <mxGeometry relative="1" as="geometry" />
        </mxCell>
        <mxCell id="ezcsZX249BQA05ixr2hQ-4" value="" style="verticalLabelPosition=bottom;shadow=0;dashed=0;align=center;html=1;verticalAlign=top;strokeWidth=1;shape=mxgraph.mockup.containers.userMale;strokeColor=#666666;strokeColor2=#008cff;" vertex="1" parent="1">
          <mxGeometry x="860" y="55" width="50" height="50" as="geometry" />
        </mxCell>
        <mxCell id="ezcsZX249BQA05ixr2hQ-5" value="" style="verticalLabelPosition=bottom;shadow=0;dashed=0;align=center;html=1;verticalAlign=top;strokeWidth=1;shape=mxgraph.mockup.misc.shoppingCart;strokeColor=#999999;" vertex="1" parent="1">
          <mxGeometry x="950" y="55" width="50" height="50" as="geometry" />
        </mxCell>
        <mxCell id="ezcsZX249BQA05ixr2hQ-6" value="" style="line;strokeWidth=2;html=1;" vertex="1" parent="1">
          <mxGeometry x="60" y="75" width="50" height="10" as="geometry" />
        </mxCell>
        <mxCell id="ezcsZX249BQA05ixr2hQ-258" style="edgeStyle=orthogonalEdgeStyle;rounded=0;orthogonalLoop=1;jettySize=auto;html=1;fontFamily=Georgia;fontSize=36;" edge="1" parent="1" source="ezcsZX249BQA05ixr2hQ-7" target="677b7b8949515195-8">
          <mxGeometry relative="1" as="geometry" />
        </mxCell>
        <mxCell id="ezcsZX249BQA05ixr2hQ-7" value="" style="line;strokeWidth=2;html=1;" vertex="1" parent="1">
          <mxGeometry x="60" y="85" width="50" height="10" as="geometry" />
        </mxCell>
        <mxCell id="ezcsZX249BQA05ixr2hQ-8" value="" style="line;strokeWidth=2;html=1;" vertex="1" parent="1">
          <mxGeometry x="60" y="95" width="50" height="10" as="geometry" />
        </mxCell>
        <mxCell id="ezcsZX249BQA05ixr2hQ-10" value="" style="whiteSpace=wrap;html=1;rounded=0;shadow=0;labelBackgroundColor=none;strokeWidth=1;fillColor=none;fontFamily=Verdana;fontSize=12;align=center;comic=1;" vertex="1" parent="1">
          <mxGeometry x="820" y="554" width="210" height="166" as="geometry" />
        </mxCell>
        <mxCell id="ezcsZX249BQA05ixr2hQ-11" value="" style="whiteSpace=wrap;html=1;rounded=0;shadow=0;labelBackgroundColor=none;strokeWidth=1;fillColor=none;fontFamily=Verdana;fontSize=12;align=center;comic=1;" vertex="1" parent="1">
          <mxGeometry x="540" y="554" width="210" height="166" as="geometry" />
        </mxCell>
        <mxCell id="ezcsZX249BQA05ixr2hQ-12" value="" style="verticalLabelPosition=bottom;shadow=0;dashed=0;align=center;html=1;verticalAlign=top;strokeWidth=1;shape=mxgraph.mockup.graphics.simpleIcon;strokeColor=#999999;rounded=0;labelBackgroundColor=none;fontFamily=Verdana;fontSize=14;fontColor=#000000;comic=1;" vertex="1" parent="1">
          <mxGeometry x="260" y="550" width="210" height="178" as="geometry" />
        </mxCell>
        <mxCell id="ezcsZX249BQA05ixr2hQ-13" value="" style="verticalLabelPosition=bottom;shadow=0;dashed=0;align=center;html=1;verticalAlign=top;strokeWidth=1;shape=mxgraph.mockup.graphics.simpleIcon;strokeColor=#999999;rounded=0;labelBackgroundColor=none;fontFamily=Verdana;fontSize=14;fontColor=#000000;comic=1;" vertex="1" parent="1">
          <mxGeometry x="540" y="550" width="210" height="174" as="geometry" />
        </mxCell>
        <mxCell id="ezcsZX249BQA05ixr2hQ-14" value="" style="verticalLabelPosition=bottom;shadow=0;dashed=0;align=center;html=1;verticalAlign=top;strokeWidth=1;shape=mxgraph.mockup.graphics.simpleIcon;strokeColor=#999999;rounded=0;labelBackgroundColor=none;fontFamily=Verdana;fontSize=14;fontColor=#000000;comic=1;" vertex="1" parent="1">
          <mxGeometry x="820" y="550" width="210" height="174" as="geometry" />
        </mxCell>
        <mxCell id="ezcsZX249BQA05ixr2hQ-15" value="Text" style="text;html=1;strokeColor=none;fillColor=none;align=center;verticalAlign=middle;whiteSpace=wrap;rounded=0;" vertex="1" parent="1">
          <mxGeometry x="280" y="693" width="170" height="30" as="geometry" />
        </mxCell>
        <mxCell id="ezcsZX249BQA05ixr2hQ-16" value="Text" style="text;html=1;strokeColor=none;fillColor=none;align=center;verticalAlign=middle;whiteSpace=wrap;rounded=0;" vertex="1" parent="1">
          <mxGeometry x="560" y="693" width="170" height="30" as="geometry" />
        </mxCell>
        <mxCell id="ezcsZX249BQA05ixr2hQ-17" value="Text" style="text;html=1;strokeColor=none;fillColor=none;align=center;verticalAlign=middle;whiteSpace=wrap;rounded=0;" vertex="1" parent="1">
          <mxGeometry x="840" y="694" width="170" height="30" as="geometry" />
        </mxCell>
        <mxCell id="ezcsZX249BQA05ixr2hQ-18" value="" style="verticalLabelPosition=bottom;shadow=0;dashed=0;align=center;html=1;verticalAlign=top;strokeWidth=1;shape=mxgraph.mockup.graphics.simpleIcon;strokeColor=#999999;rounded=0;labelBackgroundColor=none;fontFamily=Verdana;fontSize=14;fontColor=#000000;comic=1;" vertex="1" parent="1">
          <mxGeometry x="260" y="764" width="210" height="174" as="geometry" />
        </mxCell>
        <mxCell id="ezcsZX249BQA05ixr2hQ-19" value="" style="verticalLabelPosition=bottom;shadow=0;dashed=0;align=center;html=1;verticalAlign=top;strokeWidth=1;shape=mxgraph.mockup.graphics.simpleIcon;strokeColor=#999999;rounded=0;labelBackgroundColor=none;fontFamily=Verdana;fontSize=14;fontColor=#000000;comic=1;" vertex="1" parent="1">
          <mxGeometry x="540" y="760" width="210" height="174" as="geometry" />
        </mxCell>
        <mxCell id="ezcsZX249BQA05ixr2hQ-20" value="" style="verticalLabelPosition=bottom;shadow=0;dashed=0;align=center;html=1;verticalAlign=top;strokeWidth=1;shape=mxgraph.mockup.graphics.simpleIcon;strokeColor=#999999;rounded=0;labelBackgroundColor=none;fontFamily=Verdana;fontSize=14;fontColor=#000000;comic=1;" vertex="1" parent="1">
          <mxGeometry x="820" y="760" width="210" height="174" as="geometry" />
        </mxCell>
        <mxCell id="ezcsZX249BQA05ixr2hQ-21" value="Text" style="text;html=1;strokeColor=none;fillColor=none;align=center;verticalAlign=middle;whiteSpace=wrap;rounded=0;" vertex="1" parent="1">
          <mxGeometry x="280" y="907" width="170" height="30" as="geometry" />
        </mxCell>
        <mxCell id="ezcsZX249BQA05ixr2hQ-22" value="Text" style="text;html=1;strokeColor=none;fillColor=none;align=center;verticalAlign=middle;whiteSpace=wrap;rounded=0;" vertex="1" parent="1">
          <mxGeometry x="560" y="907" width="170" height="30" as="geometry" />
        </mxCell>
        <mxCell id="ezcsZX249BQA05ixr2hQ-23" value="Text" style="text;html=1;strokeColor=none;fillColor=none;align=center;verticalAlign=middle;whiteSpace=wrap;rounded=0;" vertex="1" parent="1">
          <mxGeometry x="840" y="908" width="170" height="30" as="geometry" />
        </mxCell>
        <mxCell id="ezcsZX249BQA05ixr2hQ-37" value="" style="verticalLabelPosition=bottom;shadow=0;dashed=0;align=center;html=1;verticalAlign=top;strokeWidth=1;shape=mxgraph.mockup.graphics.simpleIcon;strokeColor=#999999;rounded=0;labelBackgroundColor=none;fontFamily=Verdana;fontSize=14;fontColor=#000000;comic=1;" vertex="1" parent="1">
          <mxGeometry x="820" y="1330" width="210" height="260" as="geometry" />
        </mxCell>
        <mxCell id="ezcsZX249BQA05ixr2hQ-38" value="" style="verticalLabelPosition=bottom;shadow=0;dashed=0;align=center;html=1;verticalAlign=top;strokeWidth=1;shape=mxgraph.mockup.forms.splitter;strokeColor=#999999;" vertex="1" parent="1">
          <mxGeometry x="230" y="970" width="830" height="10" as="geometry" />
        </mxCell>
        <mxCell id="ezcsZX249BQA05ixr2hQ-39" value="" style="verticalLabelPosition=bottom;shadow=0;dashed=0;align=center;html=1;verticalAlign=top;strokeWidth=1;shape=mxgraph.mockup.graphics.simpleIcon;strokeColor=#999999;rounded=0;labelBackgroundColor=none;fontFamily=Verdana;fontSize=14;fontColor=#000000;comic=1;" vertex="1" parent="1">
          <mxGeometry x="540" y="1330" width="210" height="260" as="geometry" />
        </mxCell>
        <mxCell id="ezcsZX249BQA05ixr2hQ-40" value="" style="verticalLabelPosition=bottom;shadow=0;dashed=0;align=center;html=1;verticalAlign=top;strokeWidth=1;shape=mxgraph.mockup.graphics.simpleIcon;strokeColor=#999999;rounded=0;labelBackgroundColor=none;fontFamily=Verdana;fontSize=14;fontColor=#000000;comic=1;" vertex="1" parent="1">
          <mxGeometry x="260" y="1330" width="210" height="260" as="geometry" />
        </mxCell>
        <mxCell id="ezcsZX249BQA05ixr2hQ-247" style="edgeStyle=orthogonalEdgeStyle;rounded=0;orthogonalLoop=1;jettySize=auto;html=1;fontFamily=Georgia;fontSize=36;" edge="1" parent="1" source="ezcsZX249BQA05ixr2hQ-41" target="ezcsZX249BQA05ixr2hQ-120">
          <mxGeometry relative="1" as="geometry" />
        </mxCell>
        <mxCell id="ezcsZX249BQA05ixr2hQ-41" value="" style="verticalLabelPosition=bottom;shadow=0;dashed=0;align=center;html=1;verticalAlign=top;strokeWidth=1;shape=mxgraph.mockup.graphics.simpleIcon;strokeColor=#999999;rounded=0;labelBackgroundColor=none;fontFamily=Verdana;fontSize=14;fontColor=#000000;comic=1;" vertex="1" parent="1">
          <mxGeometry x="820" y="1020" width="210" height="260" as="geometry" />
        </mxCell>
        <mxCell id="ezcsZX249BQA05ixr2hQ-42" value="" style="verticalLabelPosition=bottom;shadow=0;dashed=0;align=center;html=1;verticalAlign=top;strokeWidth=1;shape=mxgraph.mockup.graphics.simpleIcon;strokeColor=#999999;rounded=0;labelBackgroundColor=none;fontFamily=Verdana;fontSize=14;fontColor=#000000;comic=1;" vertex="1" parent="1">
          <mxGeometry x="540" y="1015" width="210" height="260" as="geometry" />
        </mxCell>
        <mxCell id="ezcsZX249BQA05ixr2hQ-43" value="" style="verticalLabelPosition=bottom;shadow=0;dashed=0;align=center;html=1;verticalAlign=top;strokeWidth=1;shape=mxgraph.mockup.graphics.simpleIcon;strokeColor=#999999;rounded=0;labelBackgroundColor=none;fontFamily=Verdana;fontSize=14;fontColor=#000000;comic=1;" vertex="1" parent="1">
          <mxGeometry x="260" y="1020" width="210" height="260" as="geometry" />
        </mxCell>
        <mxCell id="ezcsZX249BQA05ixr2hQ-44" value="&lt;font style=&quot;font-size: 18px;&quot;&gt;Text&lt;/font&gt;" style="text;html=1;strokeColor=none;fillColor=none;align=left;verticalAlign=middle;whiteSpace=wrap;rounded=0;" vertex="1" parent="1">
          <mxGeometry x="260" y="1165" width="210" height="40" as="geometry" />
        </mxCell>
        <mxCell id="ezcsZX249BQA05ixr2hQ-45" value="&lt;font style=&quot;font-size: 48px;&quot;&gt;Title&lt;/font&gt;" style="text;strokeColor=none;fillColor=none;html=1;fontSize=24;fontStyle=1;verticalAlign=middle;align=center;" vertex="1" parent="1">
          <mxGeometry x="230" y="393" width="380" height="97" as="geometry" />
        </mxCell>
        <mxCell id="ezcsZX249BQA05ixr2hQ-47" value="" style="shape=waypoint;sketch=0;fillStyle=solid;size=6;pointerEvents=1;points=[];fillColor=none;resizable=0;rotatable=0;perimeter=centerPerimeter;snapToPoint=1;fontSize=48;" vertex="1" parent="1">
          <mxGeometry x="600" y="460" width="40" height="40" as="geometry" />
        </mxCell>
        <mxCell id="ezcsZX249BQA05ixr2hQ-48" value="" style="shape=waypoint;sketch=0;fillStyle=solid;size=6;pointerEvents=1;points=[];fillColor=none;resizable=0;rotatable=0;perimeter=centerPerimeter;snapToPoint=1;fontSize=48;" vertex="1" parent="1">
          <mxGeometry x="625" y="460" width="40" height="40" as="geometry" />
        </mxCell>
        <mxCell id="ezcsZX249BQA05ixr2hQ-49" value="" style="shape=waypoint;sketch=0;fillStyle=solid;size=6;pointerEvents=1;points=[];fillColor=none;resizable=0;rotatable=0;perimeter=centerPerimeter;snapToPoint=1;fontSize=48;" vertex="1" parent="1">
          <mxGeometry x="650" y="460" width="40" height="40" as="geometry" />
        </mxCell>
        <mxCell id="ezcsZX249BQA05ixr2hQ-50" value="" style="rounded=1;whiteSpace=wrap;html=1;strokeWidth=2;fillWeight=4;hachureGap=8;hachureAngle=45;fillColor=#1ba1e2;sketch=1;fontSize=48;" vertex="1" parent="1">
          <mxGeometry x="390" y="1250" width="80" height="30" as="geometry" />
        </mxCell>
        <mxCell id="ezcsZX249BQA05ixr2hQ-51" value="" style="ellipse;whiteSpace=wrap;html=1;strokeWidth=2;fillWeight=2;hachureGap=8;fillColor=#990000;fillStyle=dots;sketch=1;fontSize=48;" vertex="1" parent="1">
          <mxGeometry x="270" y="1250" width="30" height="30" as="geometry" />
        </mxCell>
        <mxCell id="ezcsZX249BQA05ixr2hQ-73" value="" style="rounded=1;whiteSpace=wrap;html=1;strokeWidth=2;fillWeight=4;hachureGap=8;hachureAngle=45;fillColor=#1ba1e2;sketch=1;fontSize=48;" vertex="1" parent="1">
          <mxGeometry x="670" y="1245" width="80" height="30" as="geometry" />
        </mxCell>
        <mxCell id="ezcsZX249BQA05ixr2hQ-74" value="" style="ellipse;whiteSpace=wrap;html=1;strokeWidth=2;fillWeight=2;hachureGap=8;fillColor=#990000;fillStyle=dots;sketch=1;fontSize=48;" vertex="1" parent="1">
          <mxGeometry x="550" y="1245" width="30" height="30" as="geometry" />
        </mxCell>
        <mxCell id="ezcsZX249BQA05ixr2hQ-76" value="" style="rounded=1;whiteSpace=wrap;html=1;strokeWidth=2;fillWeight=4;hachureGap=8;hachureAngle=45;fillColor=#1ba1e2;sketch=1;fontSize=48;" vertex="1" parent="1">
          <mxGeometry x="950" y="1250" width="80" height="30" as="geometry" />
        </mxCell>
        <mxCell id="ezcsZX249BQA05ixr2hQ-77" value="" style="ellipse;whiteSpace=wrap;html=1;strokeWidth=2;fillWeight=2;hachureGap=8;fillColor=#990000;fillStyle=dots;sketch=1;fontSize=48;" vertex="1" parent="1">
          <mxGeometry x="830" y="1250" width="30" height="30" as="geometry" />
        </mxCell>
        <mxCell id="ezcsZX249BQA05ixr2hQ-79" value="" style="rounded=1;whiteSpace=wrap;html=1;strokeWidth=2;fillWeight=4;hachureGap=8;hachureAngle=45;fillColor=#1ba1e2;sketch=1;fontSize=48;" vertex="1" parent="1">
          <mxGeometry x="390" y="1560" width="80" height="30" as="geometry" />
        </mxCell>
        <mxCell id="ezcsZX249BQA05ixr2hQ-80" value="" style="ellipse;whiteSpace=wrap;html=1;strokeWidth=2;fillWeight=2;hachureGap=8;fillColor=#990000;fillStyle=dots;sketch=1;fontSize=48;" vertex="1" parent="1">
          <mxGeometry x="270" y="1560" width="30" height="30" as="geometry" />
        </mxCell>
        <mxCell id="ezcsZX249BQA05ixr2hQ-82" value="" style="rounded=1;whiteSpace=wrap;html=1;strokeWidth=2;fillWeight=4;hachureGap=8;hachureAngle=45;fillColor=#1ba1e2;sketch=1;fontSize=48;" vertex="1" parent="1">
          <mxGeometry x="670" y="1560" width="80" height="30" as="geometry" />
        </mxCell>
        <mxCell id="ezcsZX249BQA05ixr2hQ-83" value="" style="ellipse;whiteSpace=wrap;html=1;strokeWidth=2;fillWeight=2;hachureGap=8;fillColor=#990000;fillStyle=dots;sketch=1;fontSize=48;" vertex="1" parent="1">
          <mxGeometry x="550" y="1560" width="30" height="30" as="geometry" />
        </mxCell>
        <mxCell id="ezcsZX249BQA05ixr2hQ-85" value="" style="rounded=1;whiteSpace=wrap;html=1;strokeWidth=2;fillWeight=4;hachureGap=8;hachureAngle=45;fillColor=#1ba1e2;sketch=1;fontSize=48;" vertex="1" parent="1">
          <mxGeometry x="950" y="1560" width="80" height="30" as="geometry" />
        </mxCell>
        <mxCell id="ezcsZX249BQA05ixr2hQ-86" value="" style="ellipse;whiteSpace=wrap;html=1;strokeWidth=2;fillWeight=2;hachureGap=8;fillColor=#990000;fillStyle=dots;sketch=1;fontSize=48;" vertex="1" parent="1">
          <mxGeometry x="830" y="1560" width="30" height="30" as="geometry" />
        </mxCell>
        <mxCell id="ezcsZX249BQA05ixr2hQ-87" value="&lt;font style=&quot;font-size: 18px;&quot;&gt;12$&lt;/font&gt;" style="text;html=1;strokeColor=none;fillColor=none;align=right;verticalAlign=middle;whiteSpace=wrap;rounded=0;" vertex="1" parent="1">
          <mxGeometry x="260" y="1205" width="210" height="40" as="geometry" />
        </mxCell>
        <mxCell id="ezcsZX249BQA05ixr2hQ-94" value="&lt;font style=&quot;font-size: 18px;&quot;&gt;Text&lt;/font&gt;" style="text;html=1;strokeColor=none;fillColor=none;align=left;verticalAlign=middle;whiteSpace=wrap;rounded=0;" vertex="1" parent="1">
          <mxGeometry x="540" y="1160" width="210" height="40" as="geometry" />
        </mxCell>
        <mxCell id="ezcsZX249BQA05ixr2hQ-95" value="&lt;font style=&quot;font-size: 18px;&quot;&gt;12$&lt;/font&gt;" style="text;html=1;strokeColor=none;fillColor=none;align=right;verticalAlign=middle;whiteSpace=wrap;rounded=0;" vertex="1" parent="1">
          <mxGeometry x="540" y="1200" width="210" height="40" as="geometry" />
        </mxCell>
        <mxCell id="ezcsZX249BQA05ixr2hQ-96" value="&lt;font style=&quot;font-size: 18px;&quot;&gt;Text&lt;/font&gt;" style="text;html=1;strokeColor=none;fillColor=none;align=left;verticalAlign=middle;whiteSpace=wrap;rounded=0;" vertex="1" parent="1">
          <mxGeometry x="820" y="1170" width="210" height="40" as="geometry" />
        </mxCell>
        <mxCell id="ezcsZX249BQA05ixr2hQ-97" value="&lt;font style=&quot;font-size: 18px;&quot;&gt;12$&lt;/font&gt;" style="text;html=1;strokeColor=none;fillColor=none;align=right;verticalAlign=middle;whiteSpace=wrap;rounded=0;" vertex="1" parent="1">
          <mxGeometry x="820" y="1210" width="210" height="40" as="geometry" />
        </mxCell>
        <mxCell id="ezcsZX249BQA05ixr2hQ-98" value="&lt;font style=&quot;font-size: 18px;&quot;&gt;Text&lt;/font&gt;" style="text;html=1;strokeColor=none;fillColor=none;align=left;verticalAlign=middle;whiteSpace=wrap;rounded=0;" vertex="1" parent="1">
          <mxGeometry x="260" y="1480" width="210" height="40" as="geometry" />
        </mxCell>
        <mxCell id="ezcsZX249BQA05ixr2hQ-99" value="&lt;font style=&quot;font-size: 18px;&quot;&gt;12$&lt;/font&gt;" style="text;html=1;strokeColor=none;fillColor=none;align=right;verticalAlign=middle;whiteSpace=wrap;rounded=0;" vertex="1" parent="1">
          <mxGeometry x="260" y="1520" width="210" height="40" as="geometry" />
        </mxCell>
        <mxCell id="ezcsZX249BQA05ixr2hQ-100" value="&lt;font style=&quot;font-size: 18px;&quot;&gt;Text&lt;/font&gt;" style="text;html=1;strokeColor=none;fillColor=none;align=left;verticalAlign=middle;whiteSpace=wrap;rounded=0;" vertex="1" parent="1">
          <mxGeometry x="540" y="1480" width="210" height="40" as="geometry" />
        </mxCell>
        <mxCell id="ezcsZX249BQA05ixr2hQ-101" value="&lt;font style=&quot;font-size: 18px;&quot;&gt;12$&lt;/font&gt;" style="text;html=1;strokeColor=none;fillColor=none;align=right;verticalAlign=middle;whiteSpace=wrap;rounded=0;" vertex="1" parent="1">
          <mxGeometry x="540" y="1520" width="210" height="40" as="geometry" />
        </mxCell>
        <mxCell id="ezcsZX249BQA05ixr2hQ-102" value="&lt;font style=&quot;font-size: 18px;&quot;&gt;Text&lt;/font&gt;" style="text;html=1;strokeColor=none;fillColor=none;align=left;verticalAlign=middle;whiteSpace=wrap;rounded=0;" vertex="1" parent="1">
          <mxGeometry x="820" y="1480" width="210" height="40" as="geometry" />
        </mxCell>
        <mxCell id="ezcsZX249BQA05ixr2hQ-103" value="&lt;font style=&quot;font-size: 18px;&quot;&gt;12$&lt;/font&gt;" style="text;html=1;strokeColor=none;fillColor=none;align=right;verticalAlign=middle;whiteSpace=wrap;rounded=0;" vertex="1" parent="1">
          <mxGeometry x="820" y="1520" width="210" height="40" as="geometry" />
        </mxCell>
        <mxCell id="ezcsZX249BQA05ixr2hQ-104" value="" style="whiteSpace=wrap;html=1;rounded=0;shadow=0;labelBackgroundColor=none;strokeWidth=1;fillColor=none;fontFamily=Verdana;fontSize=12;align=center;comic=1;" vertex="1" parent="1">
          <mxGeometry x="30" y="1700" width="1050" height="280" as="geometry" />
        </mxCell>
        <UserObject label="Link" link="https://www.draw.io" id="ezcsZX249BQA05ixr2hQ-105">
          <mxCell style="text;html=1;strokeColor=none;fillColor=none;whiteSpace=wrap;align=center;verticalAlign=middle;fontColor=#0000EE;fontStyle=4;fontSize=18;" vertex="1" parent="1">
            <mxGeometry x="130" y="1720" width="60" height="40" as="geometry" />
          </mxCell>
        </UserObject>
        <UserObject label="Link" link="https://www.draw.io" id="ezcsZX249BQA05ixr2hQ-106">
          <mxCell style="text;html=1;strokeColor=none;fillColor=none;whiteSpace=wrap;align=center;verticalAlign=middle;fontColor=#0000EE;fontStyle=4;fontSize=18;" vertex="1" parent="1">
            <mxGeometry x="130" y="1790" width="60" height="40" as="geometry" />
          </mxCell>
        </UserObject>
        <UserObject label="Link" link="https://www.draw.io" id="ezcsZX249BQA05ixr2hQ-107">
          <mxCell style="text;html=1;strokeColor=none;fillColor=none;whiteSpace=wrap;align=center;verticalAlign=middle;fontColor=#0000EE;fontStyle=4;fontSize=18;" vertex="1" parent="1">
            <mxGeometry x="130" y="1860" width="60" height="40" as="geometry" />
          </mxCell>
        </UserObject>
        <UserObject label="Link" link="https://www.draw.io" id="ezcsZX249BQA05ixr2hQ-108">
          <mxCell style="text;html=1;strokeColor=none;fillColor=none;whiteSpace=wrap;align=center;verticalAlign=middle;fontColor=#0000EE;fontStyle=4;fontSize=18;" vertex="1" parent="1">
            <mxGeometry x="280" y="1720" width="60" height="40" as="geometry" />
          </mxCell>
        </UserObject>
        <UserObject label="Link" link="https://www.draw.io" id="ezcsZX249BQA05ixr2hQ-109">
          <mxCell style="text;html=1;strokeColor=none;fillColor=none;whiteSpace=wrap;align=center;verticalAlign=middle;fontColor=#0000EE;fontStyle=4;fontSize=18;" vertex="1" parent="1">
            <mxGeometry x="280" y="1790" width="60" height="40" as="geometry" />
          </mxCell>
        </UserObject>
        <UserObject label="Link" link="https://www.draw.io" id="ezcsZX249BQA05ixr2hQ-110">
          <mxCell style="text;html=1;strokeColor=none;fillColor=none;whiteSpace=wrap;align=center;verticalAlign=middle;fontColor=#0000EE;fontStyle=4;fontSize=18;" vertex="1" parent="1">
            <mxGeometry x="280" y="1860" width="60" height="40" as="geometry" />
          </mxCell>
        </UserObject>
        <UserObject label="Link" link="https://www.draw.io" id="ezcsZX249BQA05ixr2hQ-111">
          <mxCell style="text;html=1;strokeColor=none;fillColor=none;whiteSpace=wrap;align=center;verticalAlign=middle;fontColor=#0000EE;fontStyle=4;fontSize=18;" vertex="1" parent="1">
            <mxGeometry x="430" y="1720" width="60" height="40" as="geometry" />
          </mxCell>
        </UserObject>
        <UserObject label="Link" link="https://www.draw.io" id="ezcsZX249BQA05ixr2hQ-112">
          <mxCell style="text;html=1;strokeColor=none;fillColor=none;whiteSpace=wrap;align=center;verticalAlign=middle;fontColor=#0000EE;fontStyle=4;fontSize=18;" vertex="1" parent="1">
            <mxGeometry x="430" y="1790" width="60" height="40" as="geometry" />
          </mxCell>
        </UserObject>
        <UserObject label="Link" link="https://www.draw.io" id="ezcsZX249BQA05ixr2hQ-113">
          <mxCell style="text;html=1;strokeColor=none;fillColor=none;whiteSpace=wrap;align=center;verticalAlign=middle;fontColor=#0000EE;fontStyle=4;fontSize=18;" vertex="1" parent="1">
            <mxGeometry x="430" y="1860" width="60" height="40" as="geometry" />
          </mxCell>
        </UserObject>
        <UserObject label="Link" link="https://www.draw.io" id="ezcsZX249BQA05ixr2hQ-116">
          <mxCell style="text;html=1;strokeColor=none;fillColor=none;whiteSpace=wrap;align=center;verticalAlign=middle;fontColor=#0000EE;fontStyle=4;fontSize=18;" vertex="1" parent="1">
            <mxGeometry x="575" y="1720" width="60" height="40" as="geometry" />
          </mxCell>
        </UserObject>
        <UserObject label="Link" link="https://www.draw.io" id="ezcsZX249BQA05ixr2hQ-117">
          <mxCell style="text;html=1;strokeColor=none;fillColor=none;whiteSpace=wrap;align=center;verticalAlign=middle;fontColor=#0000EE;fontStyle=4;fontSize=18;" vertex="1" parent="1">
            <mxGeometry x="575" y="1790" width="60" height="40" as="geometry" />
          </mxCell>
        </UserObject>
        <UserObject label="Link" link="https://www.draw.io" id="ezcsZX249BQA05ixr2hQ-118">
          <mxCell style="text;html=1;strokeColor=none;fillColor=none;whiteSpace=wrap;align=center;verticalAlign=middle;fontColor=#0000EE;fontStyle=4;fontSize=18;" vertex="1" parent="1">
            <mxGeometry x="575" y="1860" width="60" height="40" as="geometry" />
          </mxCell>
        </UserObject>
        <mxCell id="ezcsZX249BQA05ixr2hQ-119" value="" style="verticalLabelPosition=bottom;shadow=0;dashed=0;align=center;html=1;verticalAlign=top;strokeWidth=1;shape=mxgraph.mockup.graphics.simpleIcon;strokeColor=#999999;rounded=0;labelBackgroundColor=none;fontFamily=Verdana;fontSize=14;fontColor=#000000;comic=1;" vertex="1" parent="1">
          <mxGeometry x="810" y="1723" width="210" height="174" as="geometry" />
        </mxCell>
        <mxCell id="ezcsZX249BQA05ixr2hQ-120" value="" style="whiteSpace=wrap;html=1;rounded=0;shadow=0;labelBackgroundColor=none;strokeColor=#000000;strokeWidth=1;fillColor=none;fontFamily=Verdana;fontSize=12;fontColor=#000000;align=center;comic=1;" vertex="1" parent="1">
          <mxGeometry x="1140" y="20" width="1050" height="1970" as="geometry" />
        </mxCell>
        <mxCell id="ezcsZX249BQA05ixr2hQ-121" value="LOGO" style="whiteSpace=wrap;html=1;rounded=0;shadow=0;labelBackgroundColor=none;strokeWidth=1;fontFamily=Verdana;fontSize=28;align=center;comic=1;" vertex="1" parent="1">
          <mxGeometry x="1585" y="65" width="190" height="50" as="geometry" />
        </mxCell>
        <mxCell id="ezcsZX249BQA05ixr2hQ-122" value="" style="strokeWidth=1;shadow=0;dashed=0;align=center;html=1;shape=mxgraph.mockup.forms.searchBox;strokeColor=#999999;mainText=;strokeColor2=#008cff;fontColor=#666666;fontSize=17;align=left;spacingLeft=3;rounded=0;labelBackgroundColor=none;comic=1;" vertex="1" parent="1">
          <mxGeometry x="2140" y="75" width="30" height="30" as="geometry" />
        </mxCell>
        <mxCell id="ezcsZX249BQA05ixr2hQ-123" value="" style="verticalLabelPosition=bottom;shadow=0;dashed=0;align=center;html=1;verticalAlign=top;strokeWidth=1;shape=mxgraph.mockup.containers.userMale;strokeColor=#666666;strokeColor2=#008cff;" vertex="1" parent="1">
          <mxGeometry x="1970" y="65" width="50" height="50" as="geometry" />
        </mxCell>
        <mxCell id="ezcsZX249BQA05ixr2hQ-124" value="" style="verticalLabelPosition=bottom;shadow=0;dashed=0;align=center;html=1;verticalAlign=top;strokeWidth=1;shape=mxgraph.mockup.misc.shoppingCart;strokeColor=#999999;" vertex="1" parent="1">
          <mxGeometry x="2060" y="65" width="50" height="50" as="geometry" />
        </mxCell>
        <mxCell id="ezcsZX249BQA05ixr2hQ-126" value="" style="whiteSpace=wrap;html=1;rounded=0;shadow=0;labelBackgroundColor=none;strokeWidth=1;fillColor=none;fontFamily=Verdana;fontSize=12;align=center;comic=1;" vertex="1" parent="1">
          <mxGeometry x="1140" y="1710" width="1050" height="280" as="geometry" />
        </mxCell>
        <UserObject label="Link" link="https://www.draw.io" id="ezcsZX249BQA05ixr2hQ-127">
          <mxCell style="text;html=1;strokeColor=none;fillColor=none;whiteSpace=wrap;align=center;verticalAlign=middle;fontColor=#0000EE;fontStyle=4;fontSize=18;" vertex="1" parent="1">
            <mxGeometry x="1240" y="1730" width="60" height="40" as="geometry" />
          </mxCell>
        </UserObject>
        <UserObject label="Link" link="https://www.draw.io" id="ezcsZX249BQA05ixr2hQ-128">
          <mxCell style="text;html=1;strokeColor=none;fillColor=none;whiteSpace=wrap;align=center;verticalAlign=middle;fontColor=#0000EE;fontStyle=4;fontSize=18;" vertex="1" parent="1">
            <mxGeometry x="1240" y="1800" width="60" height="40" as="geometry" />
          </mxCell>
        </UserObject>
        <UserObject label="Link" link="https://www.draw.io" id="ezcsZX249BQA05ixr2hQ-129">
          <mxCell style="text;html=1;strokeColor=none;fillColor=none;whiteSpace=wrap;align=center;verticalAlign=middle;fontColor=#0000EE;fontStyle=4;fontSize=18;" vertex="1" parent="1">
            <mxGeometry x="1240" y="1870" width="60" height="40" as="geometry" />
          </mxCell>
        </UserObject>
        <UserObject label="Link" link="https://www.draw.io" id="ezcsZX249BQA05ixr2hQ-130">
          <mxCell style="text;html=1;strokeColor=none;fillColor=none;whiteSpace=wrap;align=center;verticalAlign=middle;fontColor=#0000EE;fontStyle=4;fontSize=18;" vertex="1" parent="1">
            <mxGeometry x="1390" y="1730" width="60" height="40" as="geometry" />
          </mxCell>
        </UserObject>
        <UserObject label="Link" link="https://www.draw.io" id="ezcsZX249BQA05ixr2hQ-131">
          <mxCell style="text;html=1;strokeColor=none;fillColor=none;whiteSpace=wrap;align=center;verticalAlign=middle;fontColor=#0000EE;fontStyle=4;fontSize=18;" vertex="1" parent="1">
            <mxGeometry x="1390" y="1800" width="60" height="40" as="geometry" />
          </mxCell>
        </UserObject>
        <UserObject label="Link" link="https://www.draw.io" id="ezcsZX249BQA05ixr2hQ-132">
          <mxCell style="text;html=1;strokeColor=none;fillColor=none;whiteSpace=wrap;align=center;verticalAlign=middle;fontColor=#0000EE;fontStyle=4;fontSize=18;" vertex="1" parent="1">
            <mxGeometry x="1390" y="1870" width="60" height="40" as="geometry" />
          </mxCell>
        </UserObject>
        <UserObject label="Link" link="https://www.draw.io" id="ezcsZX249BQA05ixr2hQ-133">
          <mxCell style="text;html=1;strokeColor=none;fillColor=none;whiteSpace=wrap;align=center;verticalAlign=middle;fontColor=#0000EE;fontStyle=4;fontSize=18;" vertex="1" parent="1">
            <mxGeometry x="1540" y="1730" width="60" height="40" as="geometry" />
          </mxCell>
        </UserObject>
        <UserObject label="Link" link="https://www.draw.io" id="ezcsZX249BQA05ixr2hQ-134">
          <mxCell style="text;html=1;strokeColor=none;fillColor=none;whiteSpace=wrap;align=center;verticalAlign=middle;fontColor=#0000EE;fontStyle=4;fontSize=18;" vertex="1" parent="1">
            <mxGeometry x="1540" y="1800" width="60" height="40" as="geometry" />
          </mxCell>
        </UserObject>
        <UserObject label="Link" link="https://www.draw.io" id="ezcsZX249BQA05ixr2hQ-135">
          <mxCell style="text;html=1;strokeColor=none;fillColor=none;whiteSpace=wrap;align=center;verticalAlign=middle;fontColor=#0000EE;fontStyle=4;fontSize=18;" vertex="1" parent="1">
            <mxGeometry x="1540" y="1870" width="60" height="40" as="geometry" />
          </mxCell>
        </UserObject>
        <UserObject label="Link" link="https://www.draw.io" id="ezcsZX249BQA05ixr2hQ-136">
          <mxCell style="text;html=1;strokeColor=none;fillColor=none;whiteSpace=wrap;align=center;verticalAlign=middle;fontColor=#0000EE;fontStyle=4;fontSize=18;" vertex="1" parent="1">
            <mxGeometry x="1685" y="1730" width="60" height="40" as="geometry" />
          </mxCell>
        </UserObject>
        <UserObject label="Link" link="https://www.draw.io" id="ezcsZX249BQA05ixr2hQ-137">
          <mxCell style="text;html=1;strokeColor=none;fillColor=none;whiteSpace=wrap;align=center;verticalAlign=middle;fontColor=#0000EE;fontStyle=4;fontSize=18;" vertex="1" parent="1">
            <mxGeometry x="1685" y="1800" width="60" height="40" as="geometry" />
          </mxCell>
        </UserObject>
        <UserObject label="Link" link="https://www.draw.io" id="ezcsZX249BQA05ixr2hQ-138">
          <mxCell style="text;html=1;strokeColor=none;fillColor=none;whiteSpace=wrap;align=center;verticalAlign=middle;fontColor=#0000EE;fontStyle=4;fontSize=18;" vertex="1" parent="1">
            <mxGeometry x="1685" y="1870" width="60" height="40" as="geometry" />
          </mxCell>
        </UserObject>
        <mxCell id="ezcsZX249BQA05ixr2hQ-139" value="" style="verticalLabelPosition=bottom;shadow=0;dashed=0;align=center;html=1;verticalAlign=top;strokeWidth=1;shape=mxgraph.mockup.graphics.simpleIcon;strokeColor=#999999;rounded=0;labelBackgroundColor=none;fontFamily=Verdana;fontSize=14;fontColor=#000000;comic=1;" vertex="1" parent="1">
          <mxGeometry x="1920" y="1733" width="210" height="174" as="geometry" />
        </mxCell>
        <mxCell id="ezcsZX249BQA05ixr2hQ-142" value="" style="whiteSpace=wrap;html=1;rounded=0;shadow=0;labelBackgroundColor=none;strokeColor=#000000;strokeWidth=1;fillColor=none;fontFamily=Verdana;fontSize=12;fontColor=#000000;align=center;comic=1;" vertex="1" parent="1">
          <mxGeometry x="2240" y="20" width="1040" height="1970" as="geometry" />
        </mxCell>
        <mxCell id="ezcsZX249BQA05ixr2hQ-143" value="LOGO" style="whiteSpace=wrap;html=1;rounded=0;shadow=0;labelBackgroundColor=none;strokeWidth=1;fontFamily=Verdana;fontSize=28;align=center;comic=1;" vertex="1" parent="1">
          <mxGeometry x="2655" y="65" width="190" height="50" as="geometry" />
        </mxCell>
        <mxCell id="ezcsZX249BQA05ixr2hQ-144" value="" style="strokeWidth=1;shadow=0;dashed=0;align=center;html=1;shape=mxgraph.mockup.forms.searchBox;strokeColor=#999999;mainText=;strokeColor2=#008cff;fontColor=#666666;fontSize=17;align=left;spacingLeft=3;rounded=0;labelBackgroundColor=none;comic=1;" vertex="1" parent="1">
          <mxGeometry x="3210" y="75" width="30" height="30" as="geometry" />
        </mxCell>
        <mxCell id="ezcsZX249BQA05ixr2hQ-145" value="" style="verticalLabelPosition=bottom;shadow=0;dashed=0;align=center;html=1;verticalAlign=top;strokeWidth=1;shape=mxgraph.mockup.containers.userMale;strokeColor=#666666;strokeColor2=#008cff;" vertex="1" parent="1">
          <mxGeometry x="3040" y="65" width="50" height="50" as="geometry" />
        </mxCell>
        <mxCell id="ezcsZX249BQA05ixr2hQ-146" value="" style="verticalLabelPosition=bottom;shadow=0;dashed=0;align=center;html=1;verticalAlign=top;strokeWidth=1;shape=mxgraph.mockup.misc.shoppingCart;strokeColor=#999999;" vertex="1" parent="1">
          <mxGeometry x="3130" y="65" width="50" height="50" as="geometry" />
        </mxCell>
        <mxCell id="ezcsZX249BQA05ixr2hQ-148" value="" style="whiteSpace=wrap;html=1;rounded=0;shadow=0;labelBackgroundColor=none;strokeWidth=1;fillColor=none;fontFamily=Verdana;fontSize=12;align=center;comic=1;" vertex="1" parent="1">
          <mxGeometry x="2240" y="1720" width="1040" height="270" as="geometry" />
        </mxCell>
        <UserObject label="Link" link="https://www.draw.io" id="ezcsZX249BQA05ixr2hQ-149">
          <mxCell style="text;html=1;strokeColor=none;fillColor=none;whiteSpace=wrap;align=center;verticalAlign=middle;fontColor=#0000EE;fontStyle=4;fontSize=18;" vertex="1" parent="1">
            <mxGeometry x="2350" y="1740" width="60" height="40" as="geometry" />
          </mxCell>
        </UserObject>
        <UserObject label="Link" link="https://www.draw.io" id="ezcsZX249BQA05ixr2hQ-150">
          <mxCell style="text;html=1;strokeColor=none;fillColor=none;whiteSpace=wrap;align=center;verticalAlign=middle;fontColor=#0000EE;fontStyle=4;fontSize=18;" vertex="1" parent="1">
            <mxGeometry x="2350" y="1810" width="60" height="40" as="geometry" />
          </mxCell>
        </UserObject>
        <UserObject label="Link" link="https://www.draw.io" id="ezcsZX249BQA05ixr2hQ-151">
          <mxCell style="text;html=1;strokeColor=none;fillColor=none;whiteSpace=wrap;align=center;verticalAlign=middle;fontColor=#0000EE;fontStyle=4;fontSize=18;" vertex="1" parent="1">
            <mxGeometry x="2350" y="1880" width="60" height="40" as="geometry" />
          </mxCell>
        </UserObject>
        <UserObject label="Link" link="https://www.draw.io" id="ezcsZX249BQA05ixr2hQ-152">
          <mxCell style="text;html=1;strokeColor=none;fillColor=none;whiteSpace=wrap;align=center;verticalAlign=middle;fontColor=#0000EE;fontStyle=4;fontSize=18;" vertex="1" parent="1">
            <mxGeometry x="2500" y="1740" width="60" height="40" as="geometry" />
          </mxCell>
        </UserObject>
        <UserObject label="Link" link="https://www.draw.io" id="ezcsZX249BQA05ixr2hQ-153">
          <mxCell style="text;html=1;strokeColor=none;fillColor=none;whiteSpace=wrap;align=center;verticalAlign=middle;fontColor=#0000EE;fontStyle=4;fontSize=18;" vertex="1" parent="1">
            <mxGeometry x="2500" y="1810" width="60" height="40" as="geometry" />
          </mxCell>
        </UserObject>
        <UserObject label="Link" link="https://www.draw.io" id="ezcsZX249BQA05ixr2hQ-154">
          <mxCell style="text;html=1;strokeColor=none;fillColor=none;whiteSpace=wrap;align=center;verticalAlign=middle;fontColor=#0000EE;fontStyle=4;fontSize=18;" vertex="1" parent="1">
            <mxGeometry x="2500" y="1880" width="60" height="40" as="geometry" />
          </mxCell>
        </UserObject>
        <UserObject label="Link" link="https://www.draw.io" id="ezcsZX249BQA05ixr2hQ-155">
          <mxCell style="text;html=1;strokeColor=none;fillColor=none;whiteSpace=wrap;align=center;verticalAlign=middle;fontColor=#0000EE;fontStyle=4;fontSize=18;" vertex="1" parent="1">
            <mxGeometry x="2650" y="1740" width="60" height="40" as="geometry" />
          </mxCell>
        </UserObject>
        <UserObject label="Link" link="https://www.draw.io" id="ezcsZX249BQA05ixr2hQ-156">
          <mxCell style="text;html=1;strokeColor=none;fillColor=none;whiteSpace=wrap;align=center;verticalAlign=middle;fontColor=#0000EE;fontStyle=4;fontSize=18;" vertex="1" parent="1">
            <mxGeometry x="2650" y="1810" width="60" height="40" as="geometry" />
          </mxCell>
        </UserObject>
        <UserObject label="Link" link="https://www.draw.io" id="ezcsZX249BQA05ixr2hQ-157">
          <mxCell style="text;html=1;strokeColor=none;fillColor=none;whiteSpace=wrap;align=center;verticalAlign=middle;fontColor=#0000EE;fontStyle=4;fontSize=18;" vertex="1" parent="1">
            <mxGeometry x="2650" y="1880" width="60" height="40" as="geometry" />
          </mxCell>
        </UserObject>
        <UserObject label="Link" link="https://www.draw.io" id="ezcsZX249BQA05ixr2hQ-158">
          <mxCell style="text;html=1;strokeColor=none;fillColor=none;whiteSpace=wrap;align=center;verticalAlign=middle;fontColor=#0000EE;fontStyle=4;fontSize=18;" vertex="1" parent="1">
            <mxGeometry x="2795" y="1740" width="60" height="40" as="geometry" />
          </mxCell>
        </UserObject>
        <UserObject label="Link" link="https://www.draw.io" id="ezcsZX249BQA05ixr2hQ-159">
          <mxCell style="text;html=1;strokeColor=none;fillColor=none;whiteSpace=wrap;align=center;verticalAlign=middle;fontColor=#0000EE;fontStyle=4;fontSize=18;" vertex="1" parent="1">
            <mxGeometry x="2795" y="1810" width="60" height="40" as="geometry" />
          </mxCell>
        </UserObject>
        <UserObject label="Link" link="https://www.draw.io" id="ezcsZX249BQA05ixr2hQ-160">
          <mxCell style="text;html=1;strokeColor=none;fillColor=none;whiteSpace=wrap;align=center;verticalAlign=middle;fontColor=#0000EE;fontStyle=4;fontSize=18;" vertex="1" parent="1">
            <mxGeometry x="2795" y="1880" width="60" height="40" as="geometry" />
          </mxCell>
        </UserObject>
        <mxCell id="ezcsZX249BQA05ixr2hQ-161" value="" style="verticalLabelPosition=bottom;shadow=0;dashed=0;align=center;html=1;verticalAlign=top;strokeWidth=1;shape=mxgraph.mockup.graphics.simpleIcon;strokeColor=#999999;rounded=0;labelBackgroundColor=none;fontFamily=Verdana;fontSize=14;fontColor=#000000;comic=1;" vertex="1" parent="1">
          <mxGeometry x="3030" y="1743" width="210" height="174" as="geometry" />
        </mxCell>
        <mxCell id="ezcsZX249BQA05ixr2hQ-163" value="" style="line;strokeWidth=2;html=1;" vertex="1" parent="1">
          <mxGeometry x="1170" y="75" width="50" height="10" as="geometry" />
        </mxCell>
        <mxCell id="ezcsZX249BQA05ixr2hQ-164" value="" style="line;strokeWidth=2;html=1;" vertex="1" parent="1">
          <mxGeometry x="1170" y="85" width="50" height="10" as="geometry" />
        </mxCell>
        <mxCell id="ezcsZX249BQA05ixr2hQ-165" value="" style="line;strokeWidth=2;html=1;" vertex="1" parent="1">
          <mxGeometry x="1170" y="95" width="50" height="10" as="geometry" />
        </mxCell>
        <mxCell id="ezcsZX249BQA05ixr2hQ-166" value="" style="line;strokeWidth=1;html=1;rounded=0;shadow=0;labelBackgroundColor=none;fillColor=none;fontFamily=Verdana;fontSize=14;fontColor=#000000;align=center;comic=1;" vertex="1" parent="1">
          <mxGeometry x="1135" y="140" width="1060" height="10" as="geometry" />
        </mxCell>
        <mxCell id="ezcsZX249BQA05ixr2hQ-259" style="edgeStyle=orthogonalEdgeStyle;rounded=0;orthogonalLoop=1;jettySize=auto;html=1;entryX=-0.006;entryY=0.204;entryDx=0;entryDy=0;entryPerimeter=0;fontFamily=Georgia;fontSize=36;" edge="1" parent="1" source="ezcsZX249BQA05ixr2hQ-167" target="677b7b8949515195-8">
          <mxGeometry relative="1" as="geometry">
            <Array as="points">
              <mxPoint x="1100" y="932" />
              <mxPoint x="1100" y="-100" />
              <mxPoint x="-110" y="-100" />
              <mxPoint x="-110" y="468" />
            </Array>
          </mxGeometry>
        </mxCell>
        <mxCell id="ezcsZX249BQA05ixr2hQ-167" value="" style="verticalLabelPosition=bottom;shadow=0;dashed=0;align=center;html=1;verticalAlign=top;strokeWidth=1;shape=mxgraph.mockup.forms.splitter;strokeColor=#999999;direction=north;fontSize=18;" vertex="1" parent="1">
          <mxGeometry x="1140" y="154" width="10" height="1556" as="geometry" />
        </mxCell>
        <mxCell id="ezcsZX249BQA05ixr2hQ-168" value="" style="verticalLabelPosition=bottom;shadow=0;dashed=0;align=center;html=1;verticalAlign=top;strokeWidth=1;shape=mxgraph.mockup.graphics.simpleIcon;strokeColor=#999999;rounded=0;labelBackgroundColor=none;fontFamily=Verdana;fontSize=14;fontColor=#000000;comic=1;" vertex="1" parent="1">
          <mxGeometry x="1240" y="191" width="910" height="379" as="geometry" />
        </mxCell>
        <mxCell id="ezcsZX249BQA05ixr2hQ-169" value="" style="shape=waypoint;sketch=0;fillStyle=solid;size=6;pointerEvents=1;points=[];fillColor=none;resizable=0;rotatable=0;perimeter=centerPerimeter;snapToPoint=1;fontSize=48;" vertex="1" parent="1">
          <mxGeometry x="1660" y="530" width="40" height="40" as="geometry" />
        </mxCell>
        <mxCell id="ezcsZX249BQA05ixr2hQ-170" value="" style="shape=waypoint;sketch=0;fillStyle=solid;size=6;pointerEvents=1;points=[];fillColor=none;resizable=0;rotatable=0;perimeter=centerPerimeter;snapToPoint=1;fontSize=48;" vertex="1" parent="1">
          <mxGeometry x="1685" y="530" width="40" height="40" as="geometry" />
        </mxCell>
        <mxCell id="ezcsZX249BQA05ixr2hQ-171" value="" style="shape=waypoint;sketch=0;fillStyle=solid;size=6;pointerEvents=1;points=[];fillColor=none;resizable=0;rotatable=0;perimeter=centerPerimeter;snapToPoint=1;fontSize=48;" vertex="1" parent="1">
          <mxGeometry x="1710" y="530" width="40" height="40" as="geometry" />
        </mxCell>
        <mxCell id="ezcsZX249BQA05ixr2hQ-172" value="&lt;font style=&quot;font-size: 36px;&quot;&gt;Title&lt;/font&gt;" style="text;strokeColor=none;fillColor=none;html=1;fontSize=24;fontStyle=1;verticalAlign=middle;align=left;" vertex="1" parent="1">
          <mxGeometry x="1240" y="578" width="910" height="97" as="geometry" />
        </mxCell>
        <mxCell id="ezcsZX249BQA05ixr2hQ-173" value="&lt;div style=&quot;text-align: justify&quot;&gt;&lt;span&gt;&lt;font style=&quot;font-size: 18px;&quot;&gt;Lorem ipsum dolor sit amet, consectetur adipisicing elit, sed do eiusmod tempor incididunt ut labore et dolore magna aliqua. Ut enim ad minim veniam, quis nostrud exercitation ullamco laboris nisi ut aliquip ex ea commodo consequat. Duis aute irure dolor in reprehenderit in voluptate velit esse cillum dolore eu fugiat nulla pariatur. Excepteur sint occaecat cupidatat non proident, sunt in culpa qui officia deserunt mollit anim id est laborum.&lt;/font&gt;&lt;/span&gt;&lt;/div&gt;&lt;div style=&quot;text-align: justify&quot;&gt;&lt;span&gt;&lt;font size=&quot;3&quot;&gt;Sed ut perspiciatis unde omnis iste natus error sit voluptatem accusantium doloremque laudantium, totam rem aperiam, eaque ipsa quae ab illo inventore veritatis et quasi architecto beatae vitae dicta sunt explicabo. Nemo enim ipsam voluptatem quia voluptas sit aspernatur aut odit aut fugit, sed quia consequuntur magni dolores eos qui ratione voluptatem sequi nesciunt.&amp;nbsp;&lt;/font&gt;&lt;/span&gt;&lt;/div&gt;" style="whiteSpace=wrap;html=1;rounded=0;shadow=0;labelBackgroundColor=none;strokeWidth=1;fillColor=none;fontFamily=Verdana;fontSize=12;align=center;verticalAlign=top;spacing=10;comic=1;" vertex="1" parent="1">
          <mxGeometry x="1240" y="675" width="910" height="235" as="geometry" />
        </mxCell>
        <mxCell id="ezcsZX249BQA05ixr2hQ-174" value="" style="verticalLabelPosition=bottom;shadow=0;dashed=0;align=center;html=1;verticalAlign=top;strokeWidth=1;shape=mxgraph.mockup.graphics.simpleIcon;strokeColor=#999999;rounded=0;labelBackgroundColor=none;fontFamily=Verdana;fontSize=14;fontColor=#000000;comic=1;" vertex="1" parent="1">
          <mxGeometry x="1885" y="1340" width="210" height="260" as="geometry" />
        </mxCell>
        <mxCell id="ezcsZX249BQA05ixr2hQ-175" value="" style="verticalLabelPosition=bottom;shadow=0;dashed=0;align=center;html=1;verticalAlign=top;strokeWidth=1;shape=mxgraph.mockup.graphics.simpleIcon;strokeColor=#999999;rounded=0;labelBackgroundColor=none;fontFamily=Verdana;fontSize=14;fontColor=#000000;comic=1;" vertex="1" parent="1">
          <mxGeometry x="1555" y="1340" width="210" height="260" as="geometry" />
        </mxCell>
        <mxCell id="ezcsZX249BQA05ixr2hQ-176" value="" style="verticalLabelPosition=bottom;shadow=0;dashed=0;align=center;html=1;verticalAlign=top;strokeWidth=1;shape=mxgraph.mockup.graphics.simpleIcon;strokeColor=#999999;rounded=0;labelBackgroundColor=none;fontFamily=Verdana;fontSize=14;fontColor=#000000;comic=1;" vertex="1" parent="1">
          <mxGeometry x="1235" y="1340" width="210" height="260" as="geometry" />
        </mxCell>
        <mxCell id="ezcsZX249BQA05ixr2hQ-177" value="&lt;font style=&quot;font-size: 18px;&quot;&gt;Text&lt;/font&gt;" style="text;html=1;strokeColor=none;fillColor=none;align=left;verticalAlign=middle;whiteSpace=wrap;rounded=0;" vertex="1" parent="1">
          <mxGeometry x="1235" y="1485" width="210" height="40" as="geometry" />
        </mxCell>
        <mxCell id="ezcsZX249BQA05ixr2hQ-178" value="" style="rounded=1;whiteSpace=wrap;html=1;strokeWidth=2;fillWeight=4;hachureGap=8;hachureAngle=45;fillColor=#1ba1e2;sketch=1;fontSize=48;" vertex="1" parent="1">
          <mxGeometry x="1365" y="1570" width="80" height="30" as="geometry" />
        </mxCell>
        <mxCell id="ezcsZX249BQA05ixr2hQ-179" value="" style="ellipse;whiteSpace=wrap;html=1;strokeWidth=2;fillWeight=2;hachureGap=8;fillColor=#990000;fillStyle=dots;sketch=1;fontSize=48;" vertex="1" parent="1">
          <mxGeometry x="1245" y="1570" width="30" height="30" as="geometry" />
        </mxCell>
        <mxCell id="ezcsZX249BQA05ixr2hQ-180" value="" style="rounded=1;whiteSpace=wrap;html=1;strokeWidth=2;fillWeight=4;hachureGap=8;hachureAngle=45;fillColor=#1ba1e2;sketch=1;fontSize=48;" vertex="1" parent="1">
          <mxGeometry x="1685" y="1570" width="80" height="30" as="geometry" />
        </mxCell>
        <mxCell id="ezcsZX249BQA05ixr2hQ-181" value="" style="ellipse;whiteSpace=wrap;html=1;strokeWidth=2;fillWeight=2;hachureGap=8;fillColor=#990000;fillStyle=dots;sketch=1;fontSize=48;" vertex="1" parent="1">
          <mxGeometry x="1565" y="1570" width="30" height="30" as="geometry" />
        </mxCell>
        <mxCell id="ezcsZX249BQA05ixr2hQ-182" value="" style="rounded=1;whiteSpace=wrap;html=1;strokeWidth=2;fillWeight=4;hachureGap=8;hachureAngle=45;fillColor=#1ba1e2;sketch=1;fontSize=48;" vertex="1" parent="1">
          <mxGeometry x="2015" y="1570" width="80" height="30" as="geometry" />
        </mxCell>
        <mxCell id="ezcsZX249BQA05ixr2hQ-183" value="" style="ellipse;whiteSpace=wrap;html=1;strokeWidth=2;fillWeight=2;hachureGap=8;fillColor=#990000;fillStyle=dots;sketch=1;fontSize=48;" vertex="1" parent="1">
          <mxGeometry x="1895" y="1570" width="30" height="30" as="geometry" />
        </mxCell>
        <mxCell id="ezcsZX249BQA05ixr2hQ-184" value="&lt;font style=&quot;font-size: 18px;&quot;&gt;12$&lt;/font&gt;" style="text;html=1;strokeColor=none;fillColor=none;align=right;verticalAlign=middle;whiteSpace=wrap;rounded=0;" vertex="1" parent="1">
          <mxGeometry x="1235" y="1525" width="210" height="40" as="geometry" />
        </mxCell>
        <mxCell id="ezcsZX249BQA05ixr2hQ-185" value="&lt;font style=&quot;font-size: 18px;&quot;&gt;Text&lt;/font&gt;" style="text;html=1;strokeColor=none;fillColor=none;align=left;verticalAlign=middle;whiteSpace=wrap;rounded=0;" vertex="1" parent="1">
          <mxGeometry x="1555" y="1485" width="210" height="40" as="geometry" />
        </mxCell>
        <mxCell id="ezcsZX249BQA05ixr2hQ-186" value="&lt;font style=&quot;font-size: 18px;&quot;&gt;12$&lt;/font&gt;" style="text;html=1;strokeColor=none;fillColor=none;align=right;verticalAlign=middle;whiteSpace=wrap;rounded=0;" vertex="1" parent="1">
          <mxGeometry x="1555" y="1525" width="210" height="40" as="geometry" />
        </mxCell>
        <mxCell id="ezcsZX249BQA05ixr2hQ-187" value="&lt;font style=&quot;font-size: 18px;&quot;&gt;Text&lt;/font&gt;" style="text;html=1;strokeColor=none;fillColor=none;align=left;verticalAlign=middle;whiteSpace=wrap;rounded=0;" vertex="1" parent="1">
          <mxGeometry x="1885" y="1490" width="210" height="40" as="geometry" />
        </mxCell>
        <mxCell id="ezcsZX249BQA05ixr2hQ-188" value="&lt;font style=&quot;font-size: 18px;&quot;&gt;12$&lt;/font&gt;" style="text;html=1;strokeColor=none;fillColor=none;align=right;verticalAlign=middle;whiteSpace=wrap;rounded=0;" vertex="1" parent="1">
          <mxGeometry x="1885" y="1530" width="210" height="40" as="geometry" />
        </mxCell>
        <mxCell id="ezcsZX249BQA05ixr2hQ-189" value="&lt;font face=&quot;Georgia&quot; style=&quot;font-size: 48px;&quot;&gt;Title&lt;/font&gt;" style="text;strokeColor=none;fillColor=none;html=1;fontSize=24;fontStyle=1;verticalAlign=middle;align=left;" vertex="1" parent="1">
          <mxGeometry x="1230" y="1185" width="950" height="97" as="geometry" />
        </mxCell>
        <mxCell id="ezcsZX249BQA05ixr2hQ-190" value="&lt;font style=&quot;font-size: 24px;&quot;&gt;12$&lt;/font&gt;" style="text;html=1;strokeColor=none;fillColor=none;align=right;verticalAlign=middle;whiteSpace=wrap;rounded=0;" vertex="1" parent="1">
          <mxGeometry x="2010" y="1000" width="140" height="40" as="geometry" />
        </mxCell>
        <mxCell id="ezcsZX249BQA05ixr2hQ-191" value="&lt;font style=&quot;font-size: 24px;&quot;&gt;Text&lt;/font&gt;" style="text;html=1;strokeColor=none;fillColor=none;align=right;verticalAlign=middle;whiteSpace=wrap;rounded=0;" vertex="1" parent="1">
          <mxGeometry x="1990" y="955" width="160" height="40" as="geometry" />
        </mxCell>
        <mxCell id="ezcsZX249BQA05ixr2hQ-192" value="" style="rounded=1;whiteSpace=wrap;html=1;strokeWidth=2;fillWeight=4;hachureGap=8;hachureAngle=45;fillColor=#1ba1e2;sketch=1;fontSize=48;" vertex="1" parent="1">
          <mxGeometry x="1960" y="1060" width="200" height="60" as="geometry" />
        </mxCell>
        <mxCell id="ezcsZX249BQA05ixr2hQ-193" value="" style="ellipse;whiteSpace=wrap;html=1;strokeWidth=2;fillWeight=2;hachureGap=8;fillColor=#990000;fillStyle=dots;sketch=1;fontSize=48;" vertex="1" parent="1">
          <mxGeometry x="1860" y="1070" width="50" height="50" as="geometry" />
        </mxCell>
        <mxCell id="ezcsZX249BQA05ixr2hQ-195" value="" style="line;strokeWidth=2;html=1;" vertex="1" parent="1">
          <mxGeometry x="2280" y="75" width="50" height="10" as="geometry" />
        </mxCell>
        <mxCell id="ezcsZX249BQA05ixr2hQ-196" value="" style="line;strokeWidth=2;html=1;" vertex="1" parent="1">
          <mxGeometry x="2280" y="85" width="50" height="10" as="geometry" />
        </mxCell>
        <mxCell id="ezcsZX249BQA05ixr2hQ-197" value="" style="line;strokeWidth=2;html=1;" vertex="1" parent="1">
          <mxGeometry x="2280" y="95" width="50" height="10" as="geometry" />
        </mxCell>
        <mxCell id="ezcsZX249BQA05ixr2hQ-199" value="" style="line;strokeWidth=1;html=1;rounded=0;shadow=0;labelBackgroundColor=none;fillColor=none;fontFamily=Verdana;fontSize=14;fontColor=#000000;align=center;comic=1;" vertex="1" parent="1">
          <mxGeometry x="2235" y="144" width="1060" height="10" as="geometry" />
        </mxCell>
        <mxCell id="ezcsZX249BQA05ixr2hQ-200" value="" style="verticalLabelPosition=bottom;shadow=0;dashed=0;align=center;html=1;verticalAlign=top;strokeWidth=1;shape=mxgraph.mockup.graphics.simpleIcon;strokeColor=#999999;rounded=0;labelBackgroundColor=none;fontFamily=Verdana;fontSize=14;fontColor=#000000;comic=1;" vertex="1" parent="1">
          <mxGeometry x="2323" y="330" width="440" height="260" as="geometry" />
        </mxCell>
        <mxCell id="ezcsZX249BQA05ixr2hQ-201" value="&lt;font style=&quot;font-size: 24px;&quot;&gt;Text&lt;/font&gt;" style="text;html=1;strokeColor=none;fillColor=none;align=left;verticalAlign=middle;whiteSpace=wrap;rounded=0;" vertex="1" parent="1">
          <mxGeometry x="2803" y="445.5" width="210" height="40" as="geometry" />
        </mxCell>
        <mxCell id="ezcsZX249BQA05ixr2hQ-202" value="" style="rounded=1;whiteSpace=wrap;html=1;strokeWidth=2;fillWeight=4;hachureGap=8;hachureAngle=45;fillColor=#1ba1e2;sketch=1;fontSize=48;" vertex="1" parent="1">
          <mxGeometry x="2833" y="561.5" width="175" height="30" as="geometry" />
        </mxCell>
        <mxCell id="ezcsZX249BQA05ixr2hQ-204" value="&lt;font style=&quot;font-size: 18px;&quot;&gt;12$&lt;/font&gt;" style="text;html=1;strokeColor=none;fillColor=none;align=right;verticalAlign=middle;whiteSpace=wrap;rounded=0;" vertex="1" parent="1">
          <mxGeometry x="2803" y="488" width="210" height="40" as="geometry" />
        </mxCell>
        <mxCell id="ezcsZX249BQA05ixr2hQ-207" value="" style="line;strokeWidth=2;html=1;fontFamily=Times New Roman;fontSize=24;" vertex="1" parent="1">
          <mxGeometry x="2783" y="571.5" width="30" height="10" as="geometry" />
        </mxCell>
        <mxCell id="ezcsZX249BQA05ixr2hQ-208" value="" style="line;strokeWidth=2;direction=south;html=1;fontFamily=Times New Roman;fontSize=24;" vertex="1" parent="1">
          <mxGeometry x="3043" y="561" width="10" height="30.5" as="geometry" />
        </mxCell>
        <mxCell id="ezcsZX249BQA05ixr2hQ-209" value="" style="line;strokeWidth=2;html=1;fontFamily=Times New Roman;fontSize=24;" vertex="1" parent="1">
          <mxGeometry x="3033" y="571.5" width="30" height="10" as="geometry" />
        </mxCell>
        <mxCell id="ezcsZX249BQA05ixr2hQ-211" value="" style="strokeColor=#999999;verticalLabelPosition=bottom;shadow=0;dashed=0;verticalAlign=top;strokeWidth=2;html=1;shape=mxgraph.mockup.misc.trashcanIcon;fontFamily=Times New Roman;fontSize=24;" vertex="1" parent="1">
          <mxGeometry x="3133" y="552" width="45" height="40" as="geometry" />
        </mxCell>
        <mxCell id="ezcsZX249BQA05ixr2hQ-212" value="" style="verticalLabelPosition=bottom;shadow=0;dashed=0;align=center;html=1;verticalAlign=top;strokeWidth=1;shape=mxgraph.mockup.graphics.simpleIcon;strokeColor=#999999;rounded=0;labelBackgroundColor=none;fontFamily=Verdana;fontSize=14;fontColor=#000000;comic=1;" vertex="1" parent="1">
          <mxGeometry x="2323" y="678" width="440" height="260" as="geometry" />
        </mxCell>
        <mxCell id="ezcsZX249BQA05ixr2hQ-213" value="&lt;font style=&quot;font-size: 24px;&quot;&gt;Text&lt;/font&gt;" style="text;html=1;strokeColor=none;fillColor=none;align=left;verticalAlign=middle;whiteSpace=wrap;rounded=0;" vertex="1" parent="1">
          <mxGeometry x="2803" y="793.5" width="210" height="40" as="geometry" />
        </mxCell>
        <mxCell id="ezcsZX249BQA05ixr2hQ-214" value="" style="rounded=1;whiteSpace=wrap;html=1;strokeWidth=2;fillWeight=4;hachureGap=8;hachureAngle=45;fillColor=#1ba1e2;sketch=1;fontSize=48;" vertex="1" parent="1">
          <mxGeometry x="2833" y="909.5" width="175" height="30" as="geometry" />
        </mxCell>
        <mxCell id="ezcsZX249BQA05ixr2hQ-215" value="&lt;font style=&quot;font-size: 18px;&quot;&gt;12$&lt;/font&gt;" style="text;html=1;strokeColor=none;fillColor=none;align=right;verticalAlign=middle;whiteSpace=wrap;rounded=0;" vertex="1" parent="1">
          <mxGeometry x="2803" y="836" width="210" height="40" as="geometry" />
        </mxCell>
        <mxCell id="ezcsZX249BQA05ixr2hQ-216" value="" style="line;strokeWidth=2;html=1;fontFamily=Times New Roman;fontSize=24;" vertex="1" parent="1">
          <mxGeometry x="2783" y="919.5" width="30" height="10" as="geometry" />
        </mxCell>
        <mxCell id="ezcsZX249BQA05ixr2hQ-217" value="" style="line;strokeWidth=2;html=1;fontFamily=Times New Roman;fontSize=24;" vertex="1" parent="1">
          <mxGeometry x="3033" y="919.5" width="30" height="10" as="geometry" />
        </mxCell>
        <mxCell id="ezcsZX249BQA05ixr2hQ-218" value="" style="strokeColor=#999999;verticalLabelPosition=bottom;shadow=0;dashed=0;verticalAlign=top;strokeWidth=2;html=1;shape=mxgraph.mockup.misc.trashcanIcon;fontFamily=Times New Roman;fontSize=24;" vertex="1" parent="1">
          <mxGeometry x="3133" y="900" width="45" height="40" as="geometry" />
        </mxCell>
        <mxCell id="ezcsZX249BQA05ixr2hQ-219" value="" style="line;strokeWidth=2;direction=south;html=1;fontFamily=Times New Roman;fontSize=24;" vertex="1" parent="1">
          <mxGeometry x="3043" y="907.75" width="10" height="30.5" as="geometry" />
        </mxCell>
        <mxCell id="ezcsZX249BQA05ixr2hQ-220" value="&lt;font face=&quot;Georgia&quot; style=&quot;font-size: 48px;&quot;&gt;Title&lt;/font&gt;" style="text;strokeColor=none;fillColor=none;html=1;fontSize=24;fontStyle=1;verticalAlign=middle;align=center;" vertex="1" parent="1">
          <mxGeometry x="2305" y="191" width="910" height="97" as="geometry" />
        </mxCell>
        <mxCell id="ezcsZX249BQA05ixr2hQ-221" value="" style="verticalLabelPosition=bottom;shadow=0;dashed=0;align=center;html=1;verticalAlign=top;strokeWidth=1;shape=mxgraph.mockup.graphics.simpleIcon;strokeColor=#999999;rounded=0;labelBackgroundColor=none;fontFamily=Verdana;fontSize=14;fontColor=#000000;comic=1;" vertex="1" parent="1">
          <mxGeometry x="2323" y="1020" width="440" height="260" as="geometry" />
        </mxCell>
        <mxCell id="ezcsZX249BQA05ixr2hQ-222" value="&lt;font style=&quot;font-size: 24px;&quot;&gt;Text&lt;/font&gt;" style="text;html=1;strokeColor=none;fillColor=none;align=left;verticalAlign=middle;whiteSpace=wrap;rounded=0;" vertex="1" parent="1">
          <mxGeometry x="2803" y="1135.5" width="210" height="40" as="geometry" />
        </mxCell>
        <mxCell id="ezcsZX249BQA05ixr2hQ-223" value="" style="rounded=1;whiteSpace=wrap;html=1;strokeWidth=2;fillWeight=4;hachureGap=8;hachureAngle=45;fillColor=#1ba1e2;sketch=1;fontSize=48;" vertex="1" parent="1">
          <mxGeometry x="2833" y="1251.5" width="175" height="30" as="geometry" />
        </mxCell>
        <mxCell id="ezcsZX249BQA05ixr2hQ-224" value="&lt;font style=&quot;font-size: 18px;&quot;&gt;12$&lt;/font&gt;" style="text;html=1;strokeColor=none;fillColor=none;align=right;verticalAlign=middle;whiteSpace=wrap;rounded=0;" vertex="1" parent="1">
          <mxGeometry x="2803" y="1178" width="210" height="40" as="geometry" />
        </mxCell>
        <mxCell id="ezcsZX249BQA05ixr2hQ-225" value="" style="line;strokeWidth=2;html=1;fontFamily=Times New Roman;fontSize=24;" vertex="1" parent="1">
          <mxGeometry x="2783" y="1261.5" width="30" height="10" as="geometry" />
        </mxCell>
        <mxCell id="ezcsZX249BQA05ixr2hQ-226" value="" style="line;strokeWidth=2;direction=south;html=1;fontFamily=Times New Roman;fontSize=24;" vertex="1" parent="1">
          <mxGeometry x="3043" y="1251" width="10" height="30.5" as="geometry" />
        </mxCell>
        <mxCell id="ezcsZX249BQA05ixr2hQ-227" value="" style="line;strokeWidth=2;html=1;fontFamily=Times New Roman;fontSize=24;" vertex="1" parent="1">
          <mxGeometry x="3033" y="1261.5" width="30" height="10" as="geometry" />
        </mxCell>
        <mxCell id="ezcsZX249BQA05ixr2hQ-228" value="" style="strokeColor=#999999;verticalLabelPosition=bottom;shadow=0;dashed=0;verticalAlign=top;strokeWidth=2;html=1;shape=mxgraph.mockup.misc.trashcanIcon;fontFamily=Times New Roman;fontSize=24;" vertex="1" parent="1">
          <mxGeometry x="3133" y="1242" width="45" height="40" as="geometry" />
        </mxCell>
        <mxCell id="ezcsZX249BQA05ixr2hQ-229" value="" style="verticalLabelPosition=bottom;shadow=0;dashed=0;align=center;html=1;verticalAlign=top;strokeWidth=1;shape=mxgraph.mockup.graphics.simpleIcon;strokeColor=#999999;rounded=0;labelBackgroundColor=none;fontFamily=Verdana;fontSize=14;fontColor=#000000;comic=1;" vertex="1" parent="1">
          <mxGeometry x="2975" y="1410" width="210" height="260" as="geometry" />
        </mxCell>
        <mxCell id="ezcsZX249BQA05ixr2hQ-230" value="" style="verticalLabelPosition=bottom;shadow=0;dashed=0;align=center;html=1;verticalAlign=top;strokeWidth=1;shape=mxgraph.mockup.graphics.simpleIcon;strokeColor=#999999;rounded=0;labelBackgroundColor=none;fontFamily=Verdana;fontSize=14;fontColor=#000000;comic=1;" vertex="1" parent="1">
          <mxGeometry x="2645" y="1410" width="210" height="260" as="geometry" />
        </mxCell>
        <mxCell id="ezcsZX249BQA05ixr2hQ-231" value="" style="verticalLabelPosition=bottom;shadow=0;dashed=0;align=center;html=1;verticalAlign=top;strokeWidth=1;shape=mxgraph.mockup.graphics.simpleIcon;strokeColor=#999999;rounded=0;labelBackgroundColor=none;fontFamily=Verdana;fontSize=14;fontColor=#000000;comic=1;" vertex="1" parent="1">
          <mxGeometry x="2325" y="1410" width="210" height="260" as="geometry" />
        </mxCell>
        <mxCell id="ezcsZX249BQA05ixr2hQ-232" value="&lt;font style=&quot;font-size: 18px;&quot;&gt;Text&lt;/font&gt;" style="text;html=1;strokeColor=none;fillColor=none;align=left;verticalAlign=middle;whiteSpace=wrap;rounded=0;" vertex="1" parent="1">
          <mxGeometry x="2325" y="1555" width="210" height="40" as="geometry" />
        </mxCell>
        <mxCell id="ezcsZX249BQA05ixr2hQ-233" value="" style="rounded=1;whiteSpace=wrap;html=1;strokeWidth=2;fillWeight=4;hachureGap=8;hachureAngle=45;fillColor=#1ba1e2;sketch=1;fontSize=48;" vertex="1" parent="1">
          <mxGeometry x="2455" y="1640" width="80" height="30" as="geometry" />
        </mxCell>
        <mxCell id="ezcsZX249BQA05ixr2hQ-234" value="" style="ellipse;whiteSpace=wrap;html=1;strokeWidth=2;fillWeight=2;hachureGap=8;fillColor=#990000;fillStyle=dots;sketch=1;fontSize=48;" vertex="1" parent="1">
          <mxGeometry x="2335" y="1640" width="30" height="30" as="geometry" />
        </mxCell>
        <mxCell id="ezcsZX249BQA05ixr2hQ-235" value="" style="rounded=1;whiteSpace=wrap;html=1;strokeWidth=2;fillWeight=4;hachureGap=8;hachureAngle=45;fillColor=#1ba1e2;sketch=1;fontSize=48;" vertex="1" parent="1">
          <mxGeometry x="2775" y="1640" width="80" height="30" as="geometry" />
        </mxCell>
        <mxCell id="ezcsZX249BQA05ixr2hQ-236" value="" style="ellipse;whiteSpace=wrap;html=1;strokeWidth=2;fillWeight=2;hachureGap=8;fillColor=#990000;fillStyle=dots;sketch=1;fontSize=48;" vertex="1" parent="1">
          <mxGeometry x="2655" y="1640" width="30" height="30" as="geometry" />
        </mxCell>
        <mxCell id="ezcsZX249BQA05ixr2hQ-237" value="" style="rounded=1;whiteSpace=wrap;html=1;strokeWidth=2;fillWeight=4;hachureGap=8;hachureAngle=45;fillColor=#1ba1e2;sketch=1;fontSize=48;" vertex="1" parent="1">
          <mxGeometry x="3105" y="1640" width="80" height="30" as="geometry" />
        </mxCell>
        <mxCell id="ezcsZX249BQA05ixr2hQ-238" value="" style="ellipse;whiteSpace=wrap;html=1;strokeWidth=2;fillWeight=2;hachureGap=8;fillColor=#990000;fillStyle=dots;sketch=1;fontSize=48;" vertex="1" parent="1">
          <mxGeometry x="2985" y="1640" width="30" height="30" as="geometry" />
        </mxCell>
        <mxCell id="ezcsZX249BQA05ixr2hQ-239" value="&lt;font style=&quot;font-size: 18px;&quot;&gt;12$&lt;/font&gt;" style="text;html=1;strokeColor=none;fillColor=none;align=right;verticalAlign=middle;whiteSpace=wrap;rounded=0;" vertex="1" parent="1">
          <mxGeometry x="2325" y="1595" width="210" height="40" as="geometry" />
        </mxCell>
        <mxCell id="ezcsZX249BQA05ixr2hQ-240" value="&lt;font style=&quot;font-size: 18px;&quot;&gt;Text&lt;/font&gt;" style="text;html=1;strokeColor=none;fillColor=none;align=left;verticalAlign=middle;whiteSpace=wrap;rounded=0;" vertex="1" parent="1">
          <mxGeometry x="2645" y="1555" width="210" height="40" as="geometry" />
        </mxCell>
        <mxCell id="ezcsZX249BQA05ixr2hQ-241" value="&lt;font style=&quot;font-size: 18px;&quot;&gt;12$&lt;/font&gt;" style="text;html=1;strokeColor=none;fillColor=none;align=right;verticalAlign=middle;whiteSpace=wrap;rounded=0;" vertex="1" parent="1">
          <mxGeometry x="2645" y="1595" width="210" height="40" as="geometry" />
        </mxCell>
        <mxCell id="ezcsZX249BQA05ixr2hQ-242" value="&lt;font style=&quot;font-size: 18px;&quot;&gt;Text&lt;/font&gt;" style="text;html=1;strokeColor=none;fillColor=none;align=left;verticalAlign=middle;whiteSpace=wrap;rounded=0;" vertex="1" parent="1">
          <mxGeometry x="2975" y="1560" width="210" height="40" as="geometry" />
        </mxCell>
        <mxCell id="ezcsZX249BQA05ixr2hQ-243" value="&lt;font style=&quot;font-size: 18px;&quot;&gt;12$&lt;/font&gt;" style="text;html=1;strokeColor=none;fillColor=none;align=right;verticalAlign=middle;whiteSpace=wrap;rounded=0;" vertex="1" parent="1">
          <mxGeometry x="2975" y="1600" width="210" height="40" as="geometry" />
        </mxCell>
        <mxCell id="ezcsZX249BQA05ixr2hQ-244" value="&lt;font face=&quot;Georgia&quot; style=&quot;font-size: 36px;&quot;&gt;Title&lt;/font&gt;" style="text;strokeColor=none;fillColor=none;html=1;fontSize=24;fontStyle=1;verticalAlign=middle;align=center;" vertex="1" parent="1">
          <mxGeometry x="2325" y="1330" width="867" height="62" as="geometry" />
        </mxCell>
        <mxCell id="ezcsZX249BQA05ixr2hQ-245" value="" style="verticalLabelPosition=bottom;shadow=0;dashed=0;align=center;html=1;verticalAlign=top;strokeWidth=1;shape=mxgraph.mockup.forms.splitter;strokeColor=#999999;direction=north;fontSize=18;" vertex="1" parent="1">
          <mxGeometry x="2240" y="150" width="10" height="1556" as="geometry" />
        </mxCell>
        <mxCell id="ezcsZX249BQA05ixr2hQ-248" value="" style="strokeWidth=1;shadow=0;dashed=0;align=center;html=1;shape=mxgraph.mockup.rrect;rSize=10;strokeColor=#666666;fontFamily=Georgia;fontSize=36;" vertex="1" parent="1">
          <mxGeometry x="830" y="-240" width="120" height="200" as="geometry" />
        </mxCell>
        <mxCell id="ezcsZX249BQA05ixr2hQ-249" value="Button 2" style="strokeColor=inherit;fillColor=inherit;gradientColor=inherit;strokeWidth=1;shadow=0;dashed=0;align=center;html=1;shape=mxgraph.mockup.rrect;rSize=0;fontSize=17;fontColor=#666666;fontStyle=1;resizeWidth=1;fontFamily=Georgia;" vertex="1" parent="ezcsZX249BQA05ixr2hQ-248">
          <mxGeometry width="120" height="50" relative="1" as="geometry">
            <mxPoint y="50" as="offset" />
          </mxGeometry>
        </mxCell>
        <mxCell id="ezcsZX249BQA05ixr2hQ-250" value="Button 3" style="strokeColor=inherit;fillColor=inherit;gradientColor=inherit;strokeWidth=1;shadow=0;dashed=0;align=center;html=1;shape=mxgraph.mockup.rrect;rSize=0;fontSize=17;fontColor=#666666;fontStyle=1;resizeWidth=1;fontFamily=Georgia;" vertex="1" parent="ezcsZX249BQA05ixr2hQ-248">
          <mxGeometry width="120" height="50" relative="1" as="geometry">
            <mxPoint y="100" as="offset" />
          </mxGeometry>
        </mxCell>
        <mxCell id="ezcsZX249BQA05ixr2hQ-251" value="Button 4" style="strokeColor=inherit;fillColor=inherit;gradientColor=inherit;strokeWidth=1;shadow=0;dashed=0;align=center;html=1;shape=mxgraph.mockup.bottomButton;rSize=10;fontSize=17;fontColor=#666666;fontStyle=1;resizeWidth=1;fontFamily=Georgia;" vertex="1" parent="ezcsZX249BQA05ixr2hQ-248">
          <mxGeometry y="1" width="120" height="50" relative="1" as="geometry">
            <mxPoint y="-50" as="offset" />
          </mxGeometry>
        </mxCell>
        <mxCell id="ezcsZX249BQA05ixr2hQ-252" value="Button 1" style="strokeWidth=1;shadow=0;dashed=0;align=center;html=1;shape=mxgraph.mockup.topButton;rSize=10;fontSize=17;fontColor=#ffffff;fontStyle=1;fillColor=#008cff;strokeColor=#008cff;resizeWidth=1;fontFamily=Georgia;" vertex="1" parent="ezcsZX249BQA05ixr2hQ-248">
          <mxGeometry width="120" height="50" relative="1" as="geometry" />
        </mxCell>
        <mxCell id="ezcsZX249BQA05ixr2hQ-254" style="edgeStyle=orthogonalEdgeStyle;rounded=0;orthogonalLoop=1;jettySize=auto;html=1;entryX=0.478;entryY=-0.003;entryDx=0;entryDy=0;entryPerimeter=0;fontFamily=Georgia;fontSize=36;" edge="1" parent="ezcsZX249BQA05ixr2hQ-248" source="ezcsZX249BQA05ixr2hQ-249" target="ezcsZX249BQA05ixr2hQ-142">
          <mxGeometry relative="1" as="geometry" />
        </mxCell>
        <mxCell id="ezcsZX249BQA05ixr2hQ-260" value="" style="whiteSpace=wrap;html=1;rounded=0;shadow=0;labelBackgroundColor=none;strokeColor=#000000;strokeWidth=1;fillColor=none;fontFamily=Verdana;fontSize=12;fontColor=#000000;align=center;comic=1;" vertex="1" parent="1">
          <mxGeometry x="45" y="2090" width="1050" height="1960" as="geometry" />
        </mxCell>
        <mxCell id="ezcsZX249BQA05ixr2hQ-261" value="LOGO" style="whiteSpace=wrap;html=1;rounded=0;shadow=0;labelBackgroundColor=none;strokeWidth=1;fontFamily=Verdana;fontSize=28;align=center;comic=1;" vertex="1" parent="1">
          <mxGeometry x="485" y="2125" width="190" height="50" as="geometry" />
        </mxCell>
        <mxCell id="ezcsZX249BQA05ixr2hQ-262" value="" style="strokeWidth=1;shadow=0;dashed=0;align=center;html=1;shape=mxgraph.mockup.forms.searchBox;strokeColor=#999999;mainText=;strokeColor2=#008cff;fontColor=#666666;fontSize=17;align=left;spacingLeft=3;rounded=0;labelBackgroundColor=none;comic=1;" vertex="1" parent="1">
          <mxGeometry x="1045" y="2135" width="30" height="30" as="geometry" />
        </mxCell>
        <mxCell id="ezcsZX249BQA05ixr2hQ-263" value="" style="whiteSpace=wrap;html=1;rounded=0;shadow=0;labelBackgroundColor=none;strokeWidth=1;fillColor=none;fontFamily=Verdana;fontSize=12;align=center;comic=1;" vertex="1" parent="1">
          <mxGeometry x="45" y="2230" width="180" height="1510" as="geometry" />
        </mxCell>
        <mxCell id="ezcsZX249BQA05ixr2hQ-264" value="" style="line;strokeWidth=1;html=1;rounded=0;shadow=0;labelBackgroundColor=none;fillColor=none;fontFamily=Verdana;fontSize=14;fontColor=#000000;align=center;comic=1;" vertex="1" parent="1">
          <mxGeometry x="35" y="2210" width="1060" height="10" as="geometry" />
        </mxCell>
        <mxCell id="ezcsZX249BQA05ixr2hQ-265" value="" style="verticalLabelPosition=bottom;shadow=0;dashed=0;align=center;html=1;verticalAlign=top;strokeWidth=1;shape=mxgraph.mockup.graphics.simpleIcon;strokeColor=#999999;rounded=0;labelBackgroundColor=none;fontFamily=Verdana;fontSize=14;fontColor=#000000;comic=1;" vertex="1" parent="1">
          <mxGeometry x="245" y="2241" width="830" height="319" as="geometry" />
        </mxCell>
        <mxCell id="ezcsZX249BQA05ixr2hQ-266" value="" style="whiteSpace=wrap;html=1;rounded=0;shadow=0;labelBackgroundColor=none;strokeWidth=1;fillColor=none;fontFamily=Verdana;fontSize=12;align=center;comic=1;" vertex="1" parent="1">
          <mxGeometry x="245" y="2580" width="830" height="1160" as="geometry" />
        </mxCell>
        <mxCell id="ezcsZX249BQA05ixr2hQ-267" value="Section 1" style="text;html=1;points=[];align=left;verticalAlign=top;spacingTop=-4;fontSize=14;fontFamily=Verdana" vertex="1" parent="1">
          <mxGeometry x="50" y="2275" width="170" height="20" as="geometry" />
        </mxCell>
        <mxCell id="ezcsZX249BQA05ixr2hQ-268" value="Section 2" style="text;html=1;points=[];align=left;verticalAlign=top;spacingTop=-4;fontSize=14;fontFamily=Verdana" vertex="1" parent="1">
          <mxGeometry x="50" y="2328" width="170" height="20" as="geometry" />
        </mxCell>
        <mxCell id="ezcsZX249BQA05ixr2hQ-269" value="Section 3" style="text;html=1;points=[];align=left;verticalAlign=top;spacingTop=-4;fontSize=14;fontFamily=Verdana" vertex="1" parent="1">
          <mxGeometry x="50" y="2385" width="170" height="20" as="geometry" />
        </mxCell>
        <mxCell id="ezcsZX249BQA05ixr2hQ-270" value="Section 4" style="text;html=1;points=[];align=left;verticalAlign=top;spacingTop=-4;fontSize=14;fontFamily=Verdana" vertex="1" parent="1">
          <mxGeometry x="55" y="2435" width="170" height="20" as="geometry" />
        </mxCell>
        <mxCell id="ezcsZX249BQA05ixr2hQ-271" value="Section 7" style="text;html=1;points=[];align=left;verticalAlign=top;spacingTop=-4;fontSize=14;fontFamily=Verdana" vertex="1" parent="1">
          <mxGeometry x="55" y="2615" width="170" height="20" as="geometry" />
        </mxCell>
        <mxCell id="ezcsZX249BQA05ixr2hQ-272" value="Section 8" style="text;html=1;points=[];align=left;verticalAlign=top;spacingTop=-4;fontSize=14;fontFamily=Verdana" vertex="1" parent="1">
          <mxGeometry x="55" y="2675" width="170" height="20" as="geometry" />
        </mxCell>
        <mxCell id="ezcsZX249BQA05ixr2hQ-273" value="Section 9" style="text;html=1;points=[];align=left;verticalAlign=top;spacingTop=-4;fontSize=14;fontFamily=Verdana" vertex="1" parent="1">
          <mxGeometry x="55" y="2725" width="170" height="20" as="geometry" />
        </mxCell>
        <mxCell id="ezcsZX249BQA05ixr2hQ-274" value="Section 10" style="text;html=1;points=[];align=left;verticalAlign=top;spacingTop=-4;fontSize=14;fontFamily=Verdana" vertex="1" parent="1">
          <mxGeometry x="55" y="2776" width="170" height="20" as="geometry" />
        </mxCell>
        <mxCell id="ezcsZX249BQA05ixr2hQ-275" value="Section 11" style="text;html=1;points=[];align=left;verticalAlign=top;spacingTop=-4;fontSize=14;fontFamily=Verdana" vertex="1" parent="1">
          <mxGeometry x="55" y="2822" width="170" height="20" as="geometry" />
        </mxCell>
        <mxCell id="ezcsZX249BQA05ixr2hQ-276" value="Section 12" style="text;html=1;points=[];align=left;verticalAlign=top;spacingTop=-4;fontSize=14;fontFamily=Verdana" vertex="1" parent="1">
          <mxGeometry x="55" y="2869" width="170" height="20" as="geometry" />
        </mxCell>
        <mxCell id="ezcsZX249BQA05ixr2hQ-277" value="Section 13" style="text;html=1;points=[];align=left;verticalAlign=top;spacingTop=-4;fontSize=14;fontFamily=Verdana" vertex="1" parent="1">
          <mxGeometry x="55" y="2915" width="170" height="20" as="geometry" />
        </mxCell>
        <mxCell id="ezcsZX249BQA05ixr2hQ-278" value="Section 14" style="text;html=1;points=[];align=left;verticalAlign=top;spacingTop=-4;fontSize=14;fontFamily=Verdana" vertex="1" parent="1">
          <mxGeometry x="55" y="2965" width="170" height="20" as="geometry" />
        </mxCell>
        <mxCell id="ezcsZX249BQA05ixr2hQ-279" value="Section 5" style="text;html=1;points=[];align=left;verticalAlign=top;spacingTop=-4;fontSize=14;fontFamily=Verdana" vertex="1" parent="1">
          <mxGeometry x="55" y="2495" width="170" height="20" as="geometry" />
        </mxCell>
        <mxCell id="ezcsZX249BQA05ixr2hQ-280" value="Section 6" style="text;html=1;points=[];align=left;verticalAlign=top;spacingTop=-4;fontSize=14;fontFamily=Verdana" vertex="1" parent="1">
          <mxGeometry x="55" y="2555" width="170" height="20" as="geometry" />
        </mxCell>
        <mxCell id="ezcsZX249BQA05ixr2hQ-281" value="Section 15" style="text;html=1;points=[];align=left;verticalAlign=top;spacingTop=-4;fontSize=14;fontFamily=Verdana" vertex="1" parent="1">
          <mxGeometry x="55" y="3015" width="170" height="20" as="geometry" />
        </mxCell>
        <mxCell id="ezcsZX249BQA05ixr2hQ-282" value="" style="verticalLabelPosition=bottom;shadow=0;dashed=0;align=center;html=1;verticalAlign=top;strokeWidth=1;shape=mxgraph.mockup.containers.userMale;strokeColor=#666666;strokeColor2=#008cff;" vertex="1" parent="1">
          <mxGeometry x="875" y="2125" width="50" height="50" as="geometry" />
        </mxCell>
        <mxCell id="ezcsZX249BQA05ixr2hQ-283" value="" style="verticalLabelPosition=bottom;shadow=0;dashed=0;align=center;html=1;verticalAlign=top;strokeWidth=1;shape=mxgraph.mockup.misc.shoppingCart;strokeColor=#999999;" vertex="1" parent="1">
          <mxGeometry x="965" y="2125" width="50" height="50" as="geometry" />
        </mxCell>
        <mxCell id="ezcsZX249BQA05ixr2hQ-284" value="" style="line;strokeWidth=2;html=1;" vertex="1" parent="1">
          <mxGeometry x="75" y="2145" width="50" height="10" as="geometry" />
        </mxCell>
        <mxCell id="ezcsZX249BQA05ixr2hQ-285" style="edgeStyle=orthogonalEdgeStyle;rounded=0;orthogonalLoop=1;jettySize=auto;html=1;fontFamily=Georgia;fontSize=36;" edge="1" parent="1" source="ezcsZX249BQA05ixr2hQ-286" target="ezcsZX249BQA05ixr2hQ-263">
          <mxGeometry relative="1" as="geometry" />
        </mxCell>
        <mxCell id="ezcsZX249BQA05ixr2hQ-286" value="" style="line;strokeWidth=2;html=1;" vertex="1" parent="1">
          <mxGeometry x="75" y="2155" width="50" height="10" as="geometry" />
        </mxCell>
        <mxCell id="ezcsZX249BQA05ixr2hQ-287" value="" style="line;strokeWidth=2;html=1;" vertex="1" parent="1">
          <mxGeometry x="75" y="2165" width="50" height="10" as="geometry" />
        </mxCell>
        <mxCell id="ezcsZX249BQA05ixr2hQ-288" value="" style="whiteSpace=wrap;html=1;rounded=0;shadow=0;labelBackgroundColor=none;strokeWidth=1;fillColor=none;fontFamily=Verdana;fontSize=12;align=center;comic=1;" vertex="1" parent="1">
          <mxGeometry x="835" y="2624" width="210" height="166" as="geometry" />
        </mxCell>
        <mxCell id="ezcsZX249BQA05ixr2hQ-289" value="" style="whiteSpace=wrap;html=1;rounded=0;shadow=0;labelBackgroundColor=none;strokeWidth=1;fillColor=none;fontFamily=Verdana;fontSize=12;align=center;comic=1;" vertex="1" parent="1">
          <mxGeometry x="555" y="2624" width="210" height="166" as="geometry" />
        </mxCell>
        <mxCell id="ezcsZX249BQA05ixr2hQ-290" value="" style="verticalLabelPosition=bottom;shadow=0;dashed=0;align=center;html=1;verticalAlign=top;strokeWidth=1;shape=mxgraph.mockup.graphics.simpleIcon;strokeColor=#999999;rounded=0;labelBackgroundColor=none;fontFamily=Verdana;fontSize=14;fontColor=#000000;comic=1;" vertex="1" parent="1">
          <mxGeometry x="275" y="2620" width="210" height="178" as="geometry" />
        </mxCell>
        <mxCell id="ezcsZX249BQA05ixr2hQ-291" value="" style="verticalLabelPosition=bottom;shadow=0;dashed=0;align=center;html=1;verticalAlign=top;strokeWidth=1;shape=mxgraph.mockup.graphics.simpleIcon;strokeColor=#999999;rounded=0;labelBackgroundColor=none;fontFamily=Verdana;fontSize=14;fontColor=#000000;comic=1;" vertex="1" parent="1">
          <mxGeometry x="555" y="2620" width="210" height="174" as="geometry" />
        </mxCell>
        <mxCell id="ezcsZX249BQA05ixr2hQ-292" value="" style="verticalLabelPosition=bottom;shadow=0;dashed=0;align=center;html=1;verticalAlign=top;strokeWidth=1;shape=mxgraph.mockup.graphics.simpleIcon;strokeColor=#999999;rounded=0;labelBackgroundColor=none;fontFamily=Verdana;fontSize=14;fontColor=#000000;comic=1;" vertex="1" parent="1">
          <mxGeometry x="835" y="2620" width="210" height="174" as="geometry" />
        </mxCell>
        <mxCell id="ezcsZX249BQA05ixr2hQ-293" value="Text" style="text;html=1;strokeColor=none;fillColor=none;align=center;verticalAlign=middle;whiteSpace=wrap;rounded=0;" vertex="1" parent="1">
          <mxGeometry x="295" y="2763" width="170" height="30" as="geometry" />
        </mxCell>
        <mxCell id="ezcsZX249BQA05ixr2hQ-294" value="Text" style="text;html=1;strokeColor=none;fillColor=none;align=center;verticalAlign=middle;whiteSpace=wrap;rounded=0;" vertex="1" parent="1">
          <mxGeometry x="575" y="2763" width="170" height="30" as="geometry" />
        </mxCell>
        <mxCell id="ezcsZX249BQA05ixr2hQ-295" value="Text" style="text;html=1;strokeColor=none;fillColor=none;align=center;verticalAlign=middle;whiteSpace=wrap;rounded=0;" vertex="1" parent="1">
          <mxGeometry x="855" y="2764" width="170" height="30" as="geometry" />
        </mxCell>
        <mxCell id="ezcsZX249BQA05ixr2hQ-296" value="" style="verticalLabelPosition=bottom;shadow=0;dashed=0;align=center;html=1;verticalAlign=top;strokeWidth=1;shape=mxgraph.mockup.graphics.simpleIcon;strokeColor=#999999;rounded=0;labelBackgroundColor=none;fontFamily=Verdana;fontSize=14;fontColor=#000000;comic=1;" vertex="1" parent="1">
          <mxGeometry x="275" y="2834" width="210" height="174" as="geometry" />
        </mxCell>
        <mxCell id="ezcsZX249BQA05ixr2hQ-297" value="" style="verticalLabelPosition=bottom;shadow=0;dashed=0;align=center;html=1;verticalAlign=top;strokeWidth=1;shape=mxgraph.mockup.graphics.simpleIcon;strokeColor=#999999;rounded=0;labelBackgroundColor=none;fontFamily=Verdana;fontSize=14;fontColor=#000000;comic=1;" vertex="1" parent="1">
          <mxGeometry x="555" y="2830" width="210" height="174" as="geometry" />
        </mxCell>
        <mxCell id="ezcsZX249BQA05ixr2hQ-298" value="" style="verticalLabelPosition=bottom;shadow=0;dashed=0;align=center;html=1;verticalAlign=top;strokeWidth=1;shape=mxgraph.mockup.graphics.simpleIcon;strokeColor=#999999;rounded=0;labelBackgroundColor=none;fontFamily=Verdana;fontSize=14;fontColor=#000000;comic=1;" vertex="1" parent="1">
          <mxGeometry x="835" y="2830" width="210" height="174" as="geometry" />
        </mxCell>
        <mxCell id="ezcsZX249BQA05ixr2hQ-299" value="Text" style="text;html=1;strokeColor=none;fillColor=none;align=center;verticalAlign=middle;whiteSpace=wrap;rounded=0;" vertex="1" parent="1">
          <mxGeometry x="295" y="2977" width="170" height="30" as="geometry" />
        </mxCell>
        <mxCell id="ezcsZX249BQA05ixr2hQ-300" value="Text" style="text;html=1;strokeColor=none;fillColor=none;align=center;verticalAlign=middle;whiteSpace=wrap;rounded=0;" vertex="1" parent="1">
          <mxGeometry x="575" y="2977" width="170" height="30" as="geometry" />
        </mxCell>
        <mxCell id="ezcsZX249BQA05ixr2hQ-301" value="Text" style="text;html=1;strokeColor=none;fillColor=none;align=center;verticalAlign=middle;whiteSpace=wrap;rounded=0;" vertex="1" parent="1">
          <mxGeometry x="855" y="2978" width="170" height="30" as="geometry" />
        </mxCell>
        <mxCell id="ezcsZX249BQA05ixr2hQ-302" value="" style="verticalLabelPosition=bottom;shadow=0;dashed=0;align=center;html=1;verticalAlign=top;strokeWidth=1;shape=mxgraph.mockup.graphics.simpleIcon;strokeColor=#999999;rounded=0;labelBackgroundColor=none;fontFamily=Verdana;fontSize=14;fontColor=#000000;comic=1;" vertex="1" parent="1">
          <mxGeometry x="835" y="3400" width="210" height="260" as="geometry" />
        </mxCell>
        <mxCell id="ezcsZX249BQA05ixr2hQ-303" value="" style="verticalLabelPosition=bottom;shadow=0;dashed=0;align=center;html=1;verticalAlign=top;strokeWidth=1;shape=mxgraph.mockup.forms.splitter;strokeColor=#999999;" vertex="1" parent="1">
          <mxGeometry x="245" y="3040" width="830" height="10" as="geometry" />
        </mxCell>
        <mxCell id="ezcsZX249BQA05ixr2hQ-304" value="" style="verticalLabelPosition=bottom;shadow=0;dashed=0;align=center;html=1;verticalAlign=top;strokeWidth=1;shape=mxgraph.mockup.graphics.simpleIcon;strokeColor=#999999;rounded=0;labelBackgroundColor=none;fontFamily=Verdana;fontSize=14;fontColor=#000000;comic=1;" vertex="1" parent="1">
          <mxGeometry x="555" y="3400" width="210" height="260" as="geometry" />
        </mxCell>
        <mxCell id="ezcsZX249BQA05ixr2hQ-305" value="" style="verticalLabelPosition=bottom;shadow=0;dashed=0;align=center;html=1;verticalAlign=top;strokeWidth=1;shape=mxgraph.mockup.graphics.simpleIcon;strokeColor=#999999;rounded=0;labelBackgroundColor=none;fontFamily=Verdana;fontSize=14;fontColor=#000000;comic=1;" vertex="1" parent="1">
          <mxGeometry x="275" y="3400" width="210" height="260" as="geometry" />
        </mxCell>
        <mxCell id="ezcsZX249BQA05ixr2hQ-306" value="" style="verticalLabelPosition=bottom;shadow=0;dashed=0;align=center;html=1;verticalAlign=top;strokeWidth=1;shape=mxgraph.mockup.graphics.simpleIcon;strokeColor=#999999;rounded=0;labelBackgroundColor=none;fontFamily=Verdana;fontSize=14;fontColor=#000000;comic=1;" vertex="1" parent="1">
          <mxGeometry x="835" y="3090" width="210" height="260" as="geometry" />
        </mxCell>
        <mxCell id="ezcsZX249BQA05ixr2hQ-307" value="" style="verticalLabelPosition=bottom;shadow=0;dashed=0;align=center;html=1;verticalAlign=top;strokeWidth=1;shape=mxgraph.mockup.graphics.simpleIcon;strokeColor=#999999;rounded=0;labelBackgroundColor=none;fontFamily=Verdana;fontSize=14;fontColor=#000000;comic=1;" vertex="1" parent="1">
          <mxGeometry x="555" y="3085" width="210" height="260" as="geometry" />
        </mxCell>
        <mxCell id="ezcsZX249BQA05ixr2hQ-308" value="" style="verticalLabelPosition=bottom;shadow=0;dashed=0;align=center;html=1;verticalAlign=top;strokeWidth=1;shape=mxgraph.mockup.graphics.simpleIcon;strokeColor=#999999;rounded=0;labelBackgroundColor=none;fontFamily=Verdana;fontSize=14;fontColor=#000000;comic=1;" vertex="1" parent="1">
          <mxGeometry x="275" y="3090" width="210" height="260" as="geometry" />
        </mxCell>
        <mxCell id="ezcsZX249BQA05ixr2hQ-309" value="&lt;font style=&quot;font-size: 18px;&quot;&gt;Text&lt;/font&gt;" style="text;html=1;strokeColor=none;fillColor=none;align=left;verticalAlign=middle;whiteSpace=wrap;rounded=0;" vertex="1" parent="1">
          <mxGeometry x="275" y="3235" width="210" height="40" as="geometry" />
        </mxCell>
        <mxCell id="ezcsZX249BQA05ixr2hQ-310" value="&lt;font style=&quot;font-size: 48px;&quot;&gt;Title&lt;/font&gt;" style="text;strokeColor=none;fillColor=none;html=1;fontSize=24;fontStyle=1;verticalAlign=middle;align=center;" vertex="1" parent="1">
          <mxGeometry x="250" y="2463" width="820" height="97" as="geometry" />
        </mxCell>
        <mxCell id="ezcsZX249BQA05ixr2hQ-314" value="" style="rounded=1;whiteSpace=wrap;html=1;strokeWidth=2;fillWeight=4;hachureGap=8;hachureAngle=45;fillColor=#1ba1e2;sketch=1;fontSize=48;" vertex="1" parent="1">
          <mxGeometry x="405" y="3320" width="80" height="30" as="geometry" />
        </mxCell>
        <mxCell id="ezcsZX249BQA05ixr2hQ-315" value="" style="ellipse;whiteSpace=wrap;html=1;strokeWidth=2;fillWeight=2;hachureGap=8;fillColor=#990000;fillStyle=dots;sketch=1;fontSize=48;" vertex="1" parent="1">
          <mxGeometry x="285" y="3320" width="30" height="30" as="geometry" />
        </mxCell>
        <mxCell id="ezcsZX249BQA05ixr2hQ-316" value="" style="rounded=1;whiteSpace=wrap;html=1;strokeWidth=2;fillWeight=4;hachureGap=8;hachureAngle=45;fillColor=#1ba1e2;sketch=1;fontSize=48;" vertex="1" parent="1">
          <mxGeometry x="685" y="3315" width="80" height="30" as="geometry" />
        </mxCell>
        <mxCell id="ezcsZX249BQA05ixr2hQ-317" value="" style="ellipse;whiteSpace=wrap;html=1;strokeWidth=2;fillWeight=2;hachureGap=8;fillColor=#990000;fillStyle=dots;sketch=1;fontSize=48;" vertex="1" parent="1">
          <mxGeometry x="565" y="3315" width="30" height="30" as="geometry" />
        </mxCell>
        <mxCell id="ezcsZX249BQA05ixr2hQ-318" value="" style="rounded=1;whiteSpace=wrap;html=1;strokeWidth=2;fillWeight=4;hachureGap=8;hachureAngle=45;fillColor=#1ba1e2;sketch=1;fontSize=48;" vertex="1" parent="1">
          <mxGeometry x="965" y="3320" width="80" height="30" as="geometry" />
        </mxCell>
        <mxCell id="ezcsZX249BQA05ixr2hQ-319" value="" style="ellipse;whiteSpace=wrap;html=1;strokeWidth=2;fillWeight=2;hachureGap=8;fillColor=#990000;fillStyle=dots;sketch=1;fontSize=48;" vertex="1" parent="1">
          <mxGeometry x="845" y="3320" width="30" height="30" as="geometry" />
        </mxCell>
        <mxCell id="ezcsZX249BQA05ixr2hQ-320" value="" style="rounded=1;whiteSpace=wrap;html=1;strokeWidth=2;fillWeight=4;hachureGap=8;hachureAngle=45;fillColor=#1ba1e2;sketch=1;fontSize=48;" vertex="1" parent="1">
          <mxGeometry x="405" y="3630" width="80" height="30" as="geometry" />
        </mxCell>
        <mxCell id="ezcsZX249BQA05ixr2hQ-321" value="" style="ellipse;whiteSpace=wrap;html=1;strokeWidth=2;fillWeight=2;hachureGap=8;fillColor=#990000;fillStyle=dots;sketch=1;fontSize=48;" vertex="1" parent="1">
          <mxGeometry x="285" y="3630" width="30" height="30" as="geometry" />
        </mxCell>
        <mxCell id="ezcsZX249BQA05ixr2hQ-322" value="" style="rounded=1;whiteSpace=wrap;html=1;strokeWidth=2;fillWeight=4;hachureGap=8;hachureAngle=45;fillColor=#1ba1e2;sketch=1;fontSize=48;" vertex="1" parent="1">
          <mxGeometry x="685" y="3630" width="80" height="30" as="geometry" />
        </mxCell>
        <mxCell id="ezcsZX249BQA05ixr2hQ-323" value="" style="ellipse;whiteSpace=wrap;html=1;strokeWidth=2;fillWeight=2;hachureGap=8;fillColor=#990000;fillStyle=dots;sketch=1;fontSize=48;" vertex="1" parent="1">
          <mxGeometry x="565" y="3630" width="30" height="30" as="geometry" />
        </mxCell>
        <mxCell id="ezcsZX249BQA05ixr2hQ-324" value="" style="rounded=1;whiteSpace=wrap;html=1;strokeWidth=2;fillWeight=4;hachureGap=8;hachureAngle=45;fillColor=#1ba1e2;sketch=1;fontSize=48;" vertex="1" parent="1">
          <mxGeometry x="965" y="3630" width="80" height="30" as="geometry" />
        </mxCell>
        <mxCell id="ezcsZX249BQA05ixr2hQ-325" value="" style="ellipse;whiteSpace=wrap;html=1;strokeWidth=2;fillWeight=2;hachureGap=8;fillColor=#990000;fillStyle=dots;sketch=1;fontSize=48;" vertex="1" parent="1">
          <mxGeometry x="845" y="3630" width="30" height="30" as="geometry" />
        </mxCell>
        <mxCell id="ezcsZX249BQA05ixr2hQ-326" value="&lt;font style=&quot;font-size: 18px;&quot;&gt;12$&lt;/font&gt;" style="text;html=1;strokeColor=none;fillColor=none;align=right;verticalAlign=middle;whiteSpace=wrap;rounded=0;" vertex="1" parent="1">
          <mxGeometry x="275" y="3275" width="210" height="40" as="geometry" />
        </mxCell>
        <mxCell id="ezcsZX249BQA05ixr2hQ-327" value="&lt;font style=&quot;font-size: 18px;&quot;&gt;Text&lt;/font&gt;" style="text;html=1;strokeColor=none;fillColor=none;align=left;verticalAlign=middle;whiteSpace=wrap;rounded=0;" vertex="1" parent="1">
          <mxGeometry x="555" y="3230" width="210" height="40" as="geometry" />
        </mxCell>
        <mxCell id="ezcsZX249BQA05ixr2hQ-328" value="&lt;font style=&quot;font-size: 18px;&quot;&gt;12$&lt;/font&gt;" style="text;html=1;strokeColor=none;fillColor=none;align=right;verticalAlign=middle;whiteSpace=wrap;rounded=0;" vertex="1" parent="1">
          <mxGeometry x="555" y="3270" width="210" height="40" as="geometry" />
        </mxCell>
        <mxCell id="ezcsZX249BQA05ixr2hQ-329" value="&lt;font style=&quot;font-size: 18px;&quot;&gt;Text&lt;/font&gt;" style="text;html=1;strokeColor=none;fillColor=none;align=left;verticalAlign=middle;whiteSpace=wrap;rounded=0;" vertex="1" parent="1">
          <mxGeometry x="835" y="3240" width="210" height="40" as="geometry" />
        </mxCell>
        <mxCell id="ezcsZX249BQA05ixr2hQ-330" value="&lt;font style=&quot;font-size: 18px;&quot;&gt;12$&lt;/font&gt;" style="text;html=1;strokeColor=none;fillColor=none;align=right;verticalAlign=middle;whiteSpace=wrap;rounded=0;" vertex="1" parent="1">
          <mxGeometry x="835" y="3280" width="210" height="40" as="geometry" />
        </mxCell>
        <mxCell id="ezcsZX249BQA05ixr2hQ-331" value="&lt;font style=&quot;font-size: 18px;&quot;&gt;Text&lt;/font&gt;" style="text;html=1;strokeColor=none;fillColor=none;align=left;verticalAlign=middle;whiteSpace=wrap;rounded=0;" vertex="1" parent="1">
          <mxGeometry x="275" y="3550" width="210" height="40" as="geometry" />
        </mxCell>
        <mxCell id="ezcsZX249BQA05ixr2hQ-332" value="&lt;font style=&quot;font-size: 18px;&quot;&gt;12$&lt;/font&gt;" style="text;html=1;strokeColor=none;fillColor=none;align=right;verticalAlign=middle;whiteSpace=wrap;rounded=0;" vertex="1" parent="1">
          <mxGeometry x="275" y="3590" width="210" height="40" as="geometry" />
        </mxCell>
        <mxCell id="ezcsZX249BQA05ixr2hQ-333" value="&lt;font style=&quot;font-size: 18px;&quot;&gt;Text&lt;/font&gt;" style="text;html=1;strokeColor=none;fillColor=none;align=left;verticalAlign=middle;whiteSpace=wrap;rounded=0;" vertex="1" parent="1">
          <mxGeometry x="555" y="3550" width="210" height="40" as="geometry" />
        </mxCell>
        <mxCell id="ezcsZX249BQA05ixr2hQ-334" value="&lt;font style=&quot;font-size: 18px;&quot;&gt;12$&lt;/font&gt;" style="text;html=1;strokeColor=none;fillColor=none;align=right;verticalAlign=middle;whiteSpace=wrap;rounded=0;" vertex="1" parent="1">
          <mxGeometry x="555" y="3590" width="210" height="40" as="geometry" />
        </mxCell>
        <mxCell id="ezcsZX249BQA05ixr2hQ-335" value="&lt;font style=&quot;font-size: 18px;&quot;&gt;Text&lt;/font&gt;" style="text;html=1;strokeColor=none;fillColor=none;align=left;verticalAlign=middle;whiteSpace=wrap;rounded=0;" vertex="1" parent="1">
          <mxGeometry x="835" y="3550" width="210" height="40" as="geometry" />
        </mxCell>
        <mxCell id="ezcsZX249BQA05ixr2hQ-336" value="&lt;font style=&quot;font-size: 18px;&quot;&gt;12$&lt;/font&gt;" style="text;html=1;strokeColor=none;fillColor=none;align=right;verticalAlign=middle;whiteSpace=wrap;rounded=0;" vertex="1" parent="1">
          <mxGeometry x="835" y="3590" width="210" height="40" as="geometry" />
        </mxCell>
        <mxCell id="ezcsZX249BQA05ixr2hQ-337" value="" style="whiteSpace=wrap;html=1;rounded=0;shadow=0;labelBackgroundColor=none;strokeWidth=1;fillColor=none;fontFamily=Verdana;fontSize=12;align=center;comic=1;" vertex="1" parent="1">
          <mxGeometry x="45" y="3770" width="1050" height="280" as="geometry" />
        </mxCell>
        <UserObject label="Link" link="https://www.draw.io" id="ezcsZX249BQA05ixr2hQ-338">
          <mxCell style="text;html=1;strokeColor=none;fillColor=none;whiteSpace=wrap;align=center;verticalAlign=middle;fontColor=#0000EE;fontStyle=4;fontSize=18;" vertex="1" parent="1">
            <mxGeometry x="145" y="3790" width="60" height="40" as="geometry" />
          </mxCell>
        </UserObject>
        <UserObject label="Link" link="https://www.draw.io" id="ezcsZX249BQA05ixr2hQ-339">
          <mxCell style="text;html=1;strokeColor=none;fillColor=none;whiteSpace=wrap;align=center;verticalAlign=middle;fontColor=#0000EE;fontStyle=4;fontSize=18;" vertex="1" parent="1">
            <mxGeometry x="145" y="3860" width="60" height="40" as="geometry" />
          </mxCell>
        </UserObject>
        <UserObject label="Link" link="https://www.draw.io" id="ezcsZX249BQA05ixr2hQ-340">
          <mxCell style="text;html=1;strokeColor=none;fillColor=none;whiteSpace=wrap;align=center;verticalAlign=middle;fontColor=#0000EE;fontStyle=4;fontSize=18;" vertex="1" parent="1">
            <mxGeometry x="145" y="3930" width="60" height="40" as="geometry" />
          </mxCell>
        </UserObject>
        <UserObject label="Link" link="https://www.draw.io" id="ezcsZX249BQA05ixr2hQ-341">
          <mxCell style="text;html=1;strokeColor=none;fillColor=none;whiteSpace=wrap;align=center;verticalAlign=middle;fontColor=#0000EE;fontStyle=4;fontSize=18;" vertex="1" parent="1">
            <mxGeometry x="295" y="3790" width="60" height="40" as="geometry" />
          </mxCell>
        </UserObject>
        <UserObject label="Link" link="https://www.draw.io" id="ezcsZX249BQA05ixr2hQ-342">
          <mxCell style="text;html=1;strokeColor=none;fillColor=none;whiteSpace=wrap;align=center;verticalAlign=middle;fontColor=#0000EE;fontStyle=4;fontSize=18;" vertex="1" parent="1">
            <mxGeometry x="295" y="3860" width="60" height="40" as="geometry" />
          </mxCell>
        </UserObject>
        <UserObject label="Link" link="https://www.draw.io" id="ezcsZX249BQA05ixr2hQ-343">
          <mxCell style="text;html=1;strokeColor=none;fillColor=none;whiteSpace=wrap;align=center;verticalAlign=middle;fontColor=#0000EE;fontStyle=4;fontSize=18;" vertex="1" parent="1">
            <mxGeometry x="295" y="3930" width="60" height="40" as="geometry" />
          </mxCell>
        </UserObject>
        <UserObject label="Link" link="https://www.draw.io" id="ezcsZX249BQA05ixr2hQ-344">
          <mxCell style="text;html=1;strokeColor=none;fillColor=none;whiteSpace=wrap;align=center;verticalAlign=middle;fontColor=#0000EE;fontStyle=4;fontSize=18;" vertex="1" parent="1">
            <mxGeometry x="445" y="3790" width="60" height="40" as="geometry" />
          </mxCell>
        </UserObject>
        <UserObject label="Link" link="https://www.draw.io" id="ezcsZX249BQA05ixr2hQ-345">
          <mxCell style="text;html=1;strokeColor=none;fillColor=none;whiteSpace=wrap;align=center;verticalAlign=middle;fontColor=#0000EE;fontStyle=4;fontSize=18;" vertex="1" parent="1">
            <mxGeometry x="445" y="3860" width="60" height="40" as="geometry" />
          </mxCell>
        </UserObject>
        <UserObject label="Link" link="https://www.draw.io" id="ezcsZX249BQA05ixr2hQ-346">
          <mxCell style="text;html=1;strokeColor=none;fillColor=none;whiteSpace=wrap;align=center;verticalAlign=middle;fontColor=#0000EE;fontStyle=4;fontSize=18;" vertex="1" parent="1">
            <mxGeometry x="445" y="3930" width="60" height="40" as="geometry" />
          </mxCell>
        </UserObject>
        <UserObject label="Link" link="https://www.draw.io" id="ezcsZX249BQA05ixr2hQ-347">
          <mxCell style="text;html=1;strokeColor=none;fillColor=none;whiteSpace=wrap;align=center;verticalAlign=middle;fontColor=#0000EE;fontStyle=4;fontSize=18;" vertex="1" parent="1">
            <mxGeometry x="590" y="3790" width="60" height="40" as="geometry" />
          </mxCell>
        </UserObject>
        <UserObject label="Link" link="https://www.draw.io" id="ezcsZX249BQA05ixr2hQ-348">
          <mxCell style="text;html=1;strokeColor=none;fillColor=none;whiteSpace=wrap;align=center;verticalAlign=middle;fontColor=#0000EE;fontStyle=4;fontSize=18;" vertex="1" parent="1">
            <mxGeometry x="590" y="3860" width="60" height="40" as="geometry" />
          </mxCell>
        </UserObject>
        <UserObject label="Link" link="https://www.draw.io" id="ezcsZX249BQA05ixr2hQ-349">
          <mxCell style="text;html=1;strokeColor=none;fillColor=none;whiteSpace=wrap;align=center;verticalAlign=middle;fontColor=#0000EE;fontStyle=4;fontSize=18;" vertex="1" parent="1">
            <mxGeometry x="590" y="3930" width="60" height="40" as="geometry" />
          </mxCell>
        </UserObject>
        <mxCell id="ezcsZX249BQA05ixr2hQ-350" value="" style="verticalLabelPosition=bottom;shadow=0;dashed=0;align=center;html=1;verticalAlign=top;strokeWidth=1;shape=mxgraph.mockup.graphics.simpleIcon;strokeColor=#999999;rounded=0;labelBackgroundColor=none;fontFamily=Verdana;fontSize=14;fontColor=#000000;comic=1;" vertex="1" parent="1">
          <mxGeometry x="825" y="3793" width="210" height="174" as="geometry" />
        </mxCell>
        <mxCell id="ezcsZX249BQA05ixr2hQ-351" value="" style="whiteSpace=wrap;html=1;rounded=0;shadow=0;labelBackgroundColor=none;strokeColor=#000000;strokeWidth=1;fillColor=none;fontFamily=Verdana;fontSize=12;fontColor=#000000;align=center;comic=1;" vertex="1" parent="1">
          <mxGeometry x="1145" y="2090" width="1040" height="1970" as="geometry" />
        </mxCell>
        <mxCell id="ezcsZX249BQA05ixr2hQ-352" value="LOGO" style="whiteSpace=wrap;html=1;rounded=0;shadow=0;labelBackgroundColor=none;strokeWidth=1;fontFamily=Verdana;fontSize=28;align=center;comic=1;" vertex="1" parent="1">
          <mxGeometry x="1560" y="2135" width="190" height="50" as="geometry" />
        </mxCell>
        <mxCell id="ezcsZX249BQA05ixr2hQ-353" value="" style="strokeWidth=1;shadow=0;dashed=0;align=center;html=1;shape=mxgraph.mockup.forms.searchBox;strokeColor=#999999;mainText=;strokeColor2=#008cff;fontColor=#666666;fontSize=17;align=left;spacingLeft=3;rounded=0;labelBackgroundColor=none;comic=1;" vertex="1" parent="1">
          <mxGeometry x="2115" y="2145" width="30" height="30" as="geometry" />
        </mxCell>
        <mxCell id="ezcsZX249BQA05ixr2hQ-354" value="" style="verticalLabelPosition=bottom;shadow=0;dashed=0;align=center;html=1;verticalAlign=top;strokeWidth=1;shape=mxgraph.mockup.containers.userMale;strokeColor=#666666;strokeColor2=#008cff;" vertex="1" parent="1">
          <mxGeometry x="1945" y="2135" width="50" height="50" as="geometry" />
        </mxCell>
        <mxCell id="ezcsZX249BQA05ixr2hQ-355" value="" style="verticalLabelPosition=bottom;shadow=0;dashed=0;align=center;html=1;verticalAlign=top;strokeWidth=1;shape=mxgraph.mockup.misc.shoppingCart;strokeColor=#999999;" vertex="1" parent="1">
          <mxGeometry x="2035" y="2135" width="50" height="50" as="geometry" />
        </mxCell>
        <mxCell id="ezcsZX249BQA05ixr2hQ-356" value="" style="whiteSpace=wrap;html=1;rounded=0;shadow=0;labelBackgroundColor=none;strokeWidth=1;fillColor=none;fontFamily=Verdana;fontSize=12;align=center;comic=1;" vertex="1" parent="1">
          <mxGeometry x="1145" y="3790" width="1040" height="270" as="geometry" />
        </mxCell>
        <UserObject label="Link" link="https://www.draw.io" id="ezcsZX249BQA05ixr2hQ-357">
          <mxCell style="text;html=1;strokeColor=none;fillColor=none;whiteSpace=wrap;align=center;verticalAlign=middle;fontColor=#0000EE;fontStyle=4;fontSize=18;" vertex="1" parent="1">
            <mxGeometry x="1255" y="3810" width="60" height="40" as="geometry" />
          </mxCell>
        </UserObject>
        <UserObject label="Link" link="https://www.draw.io" id="ezcsZX249BQA05ixr2hQ-358">
          <mxCell style="text;html=1;strokeColor=none;fillColor=none;whiteSpace=wrap;align=center;verticalAlign=middle;fontColor=#0000EE;fontStyle=4;fontSize=18;" vertex="1" parent="1">
            <mxGeometry x="1255" y="3880" width="60" height="40" as="geometry" />
          </mxCell>
        </UserObject>
        <UserObject label="Link" link="https://www.draw.io" id="ezcsZX249BQA05ixr2hQ-359">
          <mxCell style="text;html=1;strokeColor=none;fillColor=none;whiteSpace=wrap;align=center;verticalAlign=middle;fontColor=#0000EE;fontStyle=4;fontSize=18;" vertex="1" parent="1">
            <mxGeometry x="1255" y="3950" width="60" height="40" as="geometry" />
          </mxCell>
        </UserObject>
        <UserObject label="Link" link="https://www.draw.io" id="ezcsZX249BQA05ixr2hQ-360">
          <mxCell style="text;html=1;strokeColor=none;fillColor=none;whiteSpace=wrap;align=center;verticalAlign=middle;fontColor=#0000EE;fontStyle=4;fontSize=18;" vertex="1" parent="1">
            <mxGeometry x="1405" y="3810" width="60" height="40" as="geometry" />
          </mxCell>
        </UserObject>
        <UserObject label="Link" link="https://www.draw.io" id="ezcsZX249BQA05ixr2hQ-361">
          <mxCell style="text;html=1;strokeColor=none;fillColor=none;whiteSpace=wrap;align=center;verticalAlign=middle;fontColor=#0000EE;fontStyle=4;fontSize=18;" vertex="1" parent="1">
            <mxGeometry x="1405" y="3880" width="60" height="40" as="geometry" />
          </mxCell>
        </UserObject>
        <UserObject label="Link" link="https://www.draw.io" id="ezcsZX249BQA05ixr2hQ-362">
          <mxCell style="text;html=1;strokeColor=none;fillColor=none;whiteSpace=wrap;align=center;verticalAlign=middle;fontColor=#0000EE;fontStyle=4;fontSize=18;" vertex="1" parent="1">
            <mxGeometry x="1405" y="3950" width="60" height="40" as="geometry" />
          </mxCell>
        </UserObject>
        <UserObject label="Link" link="https://www.draw.io" id="ezcsZX249BQA05ixr2hQ-363">
          <mxCell style="text;html=1;strokeColor=none;fillColor=none;whiteSpace=wrap;align=center;verticalAlign=middle;fontColor=#0000EE;fontStyle=4;fontSize=18;" vertex="1" parent="1">
            <mxGeometry x="1555" y="3810" width="60" height="40" as="geometry" />
          </mxCell>
        </UserObject>
        <UserObject label="Link" link="https://www.draw.io" id="ezcsZX249BQA05ixr2hQ-364">
          <mxCell style="text;html=1;strokeColor=none;fillColor=none;whiteSpace=wrap;align=center;verticalAlign=middle;fontColor=#0000EE;fontStyle=4;fontSize=18;" vertex="1" parent="1">
            <mxGeometry x="1555" y="3880" width="60" height="40" as="geometry" />
          </mxCell>
        </UserObject>
        <UserObject label="Link" link="https://www.draw.io" id="ezcsZX249BQA05ixr2hQ-365">
          <mxCell style="text;html=1;strokeColor=none;fillColor=none;whiteSpace=wrap;align=center;verticalAlign=middle;fontColor=#0000EE;fontStyle=4;fontSize=18;" vertex="1" parent="1">
            <mxGeometry x="1555" y="3950" width="60" height="40" as="geometry" />
          </mxCell>
        </UserObject>
        <UserObject label="Link" link="https://www.draw.io" id="ezcsZX249BQA05ixr2hQ-366">
          <mxCell style="text;html=1;strokeColor=none;fillColor=none;whiteSpace=wrap;align=center;verticalAlign=middle;fontColor=#0000EE;fontStyle=4;fontSize=18;" vertex="1" parent="1">
            <mxGeometry x="1700" y="3810" width="60" height="40" as="geometry" />
          </mxCell>
        </UserObject>
        <UserObject label="Link" link="https://www.draw.io" id="ezcsZX249BQA05ixr2hQ-367">
          <mxCell style="text;html=1;strokeColor=none;fillColor=none;whiteSpace=wrap;align=center;verticalAlign=middle;fontColor=#0000EE;fontStyle=4;fontSize=18;" vertex="1" parent="1">
            <mxGeometry x="1700" y="3880" width="60" height="40" as="geometry" />
          </mxCell>
        </UserObject>
        <UserObject label="Link" link="https://www.draw.io" id="ezcsZX249BQA05ixr2hQ-368">
          <mxCell style="text;html=1;strokeColor=none;fillColor=none;whiteSpace=wrap;align=center;verticalAlign=middle;fontColor=#0000EE;fontStyle=4;fontSize=18;" vertex="1" parent="1">
            <mxGeometry x="1700" y="3950" width="60" height="40" as="geometry" />
          </mxCell>
        </UserObject>
        <mxCell id="ezcsZX249BQA05ixr2hQ-369" value="" style="verticalLabelPosition=bottom;shadow=0;dashed=0;align=center;html=1;verticalAlign=top;strokeWidth=1;shape=mxgraph.mockup.graphics.simpleIcon;strokeColor=#999999;rounded=0;labelBackgroundColor=none;fontFamily=Verdana;fontSize=14;fontColor=#000000;comic=1;" vertex="1" parent="1">
          <mxGeometry x="1935" y="3813" width="210" height="174" as="geometry" />
        </mxCell>
        <mxCell id="ezcsZX249BQA05ixr2hQ-370" value="" style="line;strokeWidth=2;html=1;" vertex="1" parent="1">
          <mxGeometry x="1185" y="2145" width="50" height="10" as="geometry" />
        </mxCell>
        <mxCell id="ezcsZX249BQA05ixr2hQ-371" value="" style="line;strokeWidth=2;html=1;" vertex="1" parent="1">
          <mxGeometry x="1185" y="2155" width="50" height="10" as="geometry" />
        </mxCell>
        <mxCell id="ezcsZX249BQA05ixr2hQ-372" value="" style="line;strokeWidth=2;html=1;" vertex="1" parent="1">
          <mxGeometry x="1185" y="2165" width="50" height="10" as="geometry" />
        </mxCell>
        <mxCell id="ezcsZX249BQA05ixr2hQ-373" value="" style="line;strokeWidth=1;html=1;rounded=0;shadow=0;labelBackgroundColor=none;fillColor=none;fontFamily=Verdana;fontSize=14;fontColor=#000000;align=center;comic=1;" vertex="1" parent="1">
          <mxGeometry x="1140" y="2214" width="1060" height="10" as="geometry" />
        </mxCell>
        <mxCell id="ezcsZX249BQA05ixr2hQ-374" value="" style="verticalLabelPosition=bottom;shadow=0;dashed=0;align=center;html=1;verticalAlign=top;strokeWidth=1;shape=mxgraph.mockup.graphics.simpleIcon;strokeColor=#999999;rounded=0;labelBackgroundColor=none;fontFamily=Verdana;fontSize=14;fontColor=#000000;comic=1;" vertex="1" parent="1">
          <mxGeometry x="1228" y="2400" width="440" height="260" as="geometry" />
        </mxCell>
        <mxCell id="ezcsZX249BQA05ixr2hQ-375" value="&lt;font style=&quot;font-size: 24px;&quot;&gt;Text&lt;/font&gt;" style="text;html=1;strokeColor=none;fillColor=none;align=left;verticalAlign=middle;whiteSpace=wrap;rounded=0;" vertex="1" parent="1">
          <mxGeometry x="1708" y="2515.5" width="210" height="40" as="geometry" />
        </mxCell>
        <mxCell id="ezcsZX249BQA05ixr2hQ-376" value="" style="rounded=1;whiteSpace=wrap;html=1;strokeWidth=2;fillWeight=4;hachureGap=8;hachureAngle=45;fillColor=#1ba1e2;sketch=1;fontSize=48;" vertex="1" parent="1">
          <mxGeometry x="1738" y="2631.5" width="175" height="30" as="geometry" />
        </mxCell>
        <mxCell id="ezcsZX249BQA05ixr2hQ-377" value="&lt;font style=&quot;font-size: 18px;&quot;&gt;12$&lt;/font&gt;" style="text;html=1;strokeColor=none;fillColor=none;align=right;verticalAlign=middle;whiteSpace=wrap;rounded=0;" vertex="1" parent="1">
          <mxGeometry x="1708" y="2558" width="210" height="40" as="geometry" />
        </mxCell>
        <mxCell id="ezcsZX249BQA05ixr2hQ-378" value="" style="line;strokeWidth=2;html=1;fontFamily=Times New Roman;fontSize=24;" vertex="1" parent="1">
          <mxGeometry x="1688" y="2641.5" width="30" height="10" as="geometry" />
        </mxCell>
        <mxCell id="ezcsZX249BQA05ixr2hQ-379" value="" style="line;strokeWidth=2;direction=south;html=1;fontFamily=Times New Roman;fontSize=24;" vertex="1" parent="1">
          <mxGeometry x="1948" y="2631" width="10" height="30.5" as="geometry" />
        </mxCell>
        <mxCell id="ezcsZX249BQA05ixr2hQ-380" value="" style="line;strokeWidth=2;html=1;fontFamily=Times New Roman;fontSize=24;" vertex="1" parent="1">
          <mxGeometry x="1938" y="2641.5" width="30" height="10" as="geometry" />
        </mxCell>
        <mxCell id="ezcsZX249BQA05ixr2hQ-381" value="" style="strokeColor=#999999;verticalLabelPosition=bottom;shadow=0;dashed=0;verticalAlign=top;strokeWidth=2;html=1;shape=mxgraph.mockup.misc.trashcanIcon;fontFamily=Times New Roman;fontSize=24;" vertex="1" parent="1">
          <mxGeometry x="2038" y="2622" width="45" height="40" as="geometry" />
        </mxCell>
        <mxCell id="ezcsZX249BQA05ixr2hQ-382" value="" style="verticalLabelPosition=bottom;shadow=0;dashed=0;align=center;html=1;verticalAlign=top;strokeWidth=1;shape=mxgraph.mockup.graphics.simpleIcon;strokeColor=#999999;rounded=0;labelBackgroundColor=none;fontFamily=Verdana;fontSize=14;fontColor=#000000;comic=1;" vertex="1" parent="1">
          <mxGeometry x="1228" y="2748" width="440" height="260" as="geometry" />
        </mxCell>
        <mxCell id="ezcsZX249BQA05ixr2hQ-383" value="&lt;font style=&quot;font-size: 24px;&quot;&gt;Text&lt;/font&gt;" style="text;html=1;strokeColor=none;fillColor=none;align=left;verticalAlign=middle;whiteSpace=wrap;rounded=0;" vertex="1" parent="1">
          <mxGeometry x="1708" y="2863.5" width="210" height="40" as="geometry" />
        </mxCell>
        <mxCell id="ezcsZX249BQA05ixr2hQ-384" value="" style="rounded=1;whiteSpace=wrap;html=1;strokeWidth=2;fillWeight=4;hachureGap=8;hachureAngle=45;fillColor=#1ba1e2;sketch=1;fontSize=48;" vertex="1" parent="1">
          <mxGeometry x="1738" y="2979.5" width="175" height="30" as="geometry" />
        </mxCell>
        <mxCell id="ezcsZX249BQA05ixr2hQ-385" value="&lt;font style=&quot;font-size: 18px;&quot;&gt;12$&lt;/font&gt;" style="text;html=1;strokeColor=none;fillColor=none;align=right;verticalAlign=middle;whiteSpace=wrap;rounded=0;" vertex="1" parent="1">
          <mxGeometry x="1708" y="2906" width="210" height="40" as="geometry" />
        </mxCell>
        <mxCell id="ezcsZX249BQA05ixr2hQ-386" value="" style="line;strokeWidth=2;html=1;fontFamily=Times New Roman;fontSize=24;" vertex="1" parent="1">
          <mxGeometry x="1688" y="2989.5" width="30" height="10" as="geometry" />
        </mxCell>
        <mxCell id="ezcsZX249BQA05ixr2hQ-387" value="" style="line;strokeWidth=2;html=1;fontFamily=Times New Roman;fontSize=24;" vertex="1" parent="1">
          <mxGeometry x="1938" y="2989.5" width="30" height="10" as="geometry" />
        </mxCell>
        <mxCell id="ezcsZX249BQA05ixr2hQ-388" value="" style="strokeColor=#999999;verticalLabelPosition=bottom;shadow=0;dashed=0;verticalAlign=top;strokeWidth=2;html=1;shape=mxgraph.mockup.misc.trashcanIcon;fontFamily=Times New Roman;fontSize=24;" vertex="1" parent="1">
          <mxGeometry x="2038" y="2970" width="45" height="40" as="geometry" />
        </mxCell>
        <mxCell id="ezcsZX249BQA05ixr2hQ-389" value="" style="line;strokeWidth=2;direction=south;html=1;fontFamily=Times New Roman;fontSize=24;" vertex="1" parent="1">
          <mxGeometry x="1948" y="2977.75" width="10" height="30.5" as="geometry" />
        </mxCell>
        <mxCell id="ezcsZX249BQA05ixr2hQ-390" value="&lt;font face=&quot;Georgia&quot; style=&quot;font-size: 48px;&quot;&gt;Title&lt;/font&gt;" style="text;strokeColor=none;fillColor=none;html=1;fontSize=24;fontStyle=1;verticalAlign=middle;align=center;" vertex="1" parent="1">
          <mxGeometry x="1210" y="2261" width="910" height="97" as="geometry" />
        </mxCell>
        <mxCell id="ezcsZX249BQA05ixr2hQ-391" value="" style="verticalLabelPosition=bottom;shadow=0;dashed=0;align=center;html=1;verticalAlign=top;strokeWidth=1;shape=mxgraph.mockup.graphics.simpleIcon;strokeColor=#999999;rounded=0;labelBackgroundColor=none;fontFamily=Verdana;fontSize=14;fontColor=#000000;comic=1;" vertex="1" parent="1">
          <mxGeometry x="1228" y="3090" width="440" height="260" as="geometry" />
        </mxCell>
        <mxCell id="ezcsZX249BQA05ixr2hQ-392" value="&lt;font style=&quot;font-size: 24px;&quot;&gt;Text&lt;/font&gt;" style="text;html=1;strokeColor=none;fillColor=none;align=left;verticalAlign=middle;whiteSpace=wrap;rounded=0;" vertex="1" parent="1">
          <mxGeometry x="1708" y="3205.5" width="210" height="40" as="geometry" />
        </mxCell>
        <mxCell id="ezcsZX249BQA05ixr2hQ-393" value="" style="rounded=1;whiteSpace=wrap;html=1;strokeWidth=2;fillWeight=4;hachureGap=8;hachureAngle=45;fillColor=#1ba1e2;sketch=1;fontSize=48;" vertex="1" parent="1">
          <mxGeometry x="1738" y="3321.5" width="175" height="30" as="geometry" />
        </mxCell>
        <mxCell id="ezcsZX249BQA05ixr2hQ-394" value="&lt;font style=&quot;font-size: 18px;&quot;&gt;12$&lt;/font&gt;" style="text;html=1;strokeColor=none;fillColor=none;align=right;verticalAlign=middle;whiteSpace=wrap;rounded=0;" vertex="1" parent="1">
          <mxGeometry x="1708" y="3248" width="210" height="40" as="geometry" />
        </mxCell>
        <mxCell id="ezcsZX249BQA05ixr2hQ-395" value="" style="line;strokeWidth=2;html=1;fontFamily=Times New Roman;fontSize=24;" vertex="1" parent="1">
          <mxGeometry x="1688" y="3331.5" width="30" height="10" as="geometry" />
        </mxCell>
        <mxCell id="ezcsZX249BQA05ixr2hQ-396" value="" style="line;strokeWidth=2;direction=south;html=1;fontFamily=Times New Roman;fontSize=24;" vertex="1" parent="1">
          <mxGeometry x="1948" y="3321" width="10" height="30.5" as="geometry" />
        </mxCell>
        <mxCell id="ezcsZX249BQA05ixr2hQ-397" value="" style="line;strokeWidth=2;html=1;fontFamily=Times New Roman;fontSize=24;" vertex="1" parent="1">
          <mxGeometry x="1938" y="3331.5" width="30" height="10" as="geometry" />
        </mxCell>
        <mxCell id="ezcsZX249BQA05ixr2hQ-398" value="" style="strokeColor=#999999;verticalLabelPosition=bottom;shadow=0;dashed=0;verticalAlign=top;strokeWidth=2;html=1;shape=mxgraph.mockup.misc.trashcanIcon;fontFamily=Times New Roman;fontSize=24;" vertex="1" parent="1">
          <mxGeometry x="2038" y="3312" width="45" height="40" as="geometry" />
        </mxCell>
        <mxCell id="ezcsZX249BQA05ixr2hQ-414" value="&lt;font face=&quot;Georgia&quot; style=&quot;font-size: 36px;&quot;&gt;Title&lt;/font&gt;" style="text;strokeColor=none;fillColor=none;html=1;fontSize=24;fontStyle=1;verticalAlign=middle;align=left;" vertex="1" parent="1">
          <mxGeometry x="1845" y="3439" width="145" height="62" as="geometry" />
        </mxCell>
        <mxCell id="ezcsZX249BQA05ixr2hQ-415" value="" style="verticalLabelPosition=bottom;shadow=0;dashed=0;align=center;html=1;verticalAlign=top;strokeWidth=1;shape=mxgraph.mockup.forms.splitter;strokeColor=#999999;direction=north;fontSize=18;" vertex="1" parent="1">
          <mxGeometry x="1145" y="2220" width="10" height="1556" as="geometry" />
        </mxCell>
        <mxCell id="ezcsZX249BQA05ixr2hQ-416" value="&lt;font face=&quot;Georgia&quot; style=&quot;font-size: 36px;&quot;&gt;&lt;u&gt;12$&lt;/u&gt;&lt;/font&gt;" style="text;html=1;strokeColor=none;fillColor=none;align=right;verticalAlign=middle;whiteSpace=wrap;rounded=0;" vertex="1" parent="1">
          <mxGeometry x="1885" y="3450" width="210" height="40" as="geometry" />
        </mxCell>
        <mxCell id="ezcsZX249BQA05ixr2hQ-417" value="Text" style="text;html=1;strokeColor=none;fillColor=none;align=center;verticalAlign=middle;whiteSpace=wrap;rounded=0;shadow=0;fontFamily=Georgia;fontSize=36;" vertex="1" parent="1">
          <mxGeometry x="1845" y="3540" width="60" height="30" as="geometry" />
        </mxCell>
      </root>
    </mxGraphModel>
  </diagram>
</mxfile>
